<?xml version="1.0" encoding="utf-8" standalone="no"?>
<!DOCTYPE svg PUBLIC "-//W3C//DTD SVG 1.1//EN"
  "http://www.w3.org/Graphics/SVG/1.1/DTD/svg11.dtd">
<svg xmlns:xlink="http://www.w3.org/1999/xlink" width="1080pt" height="288pt" viewBox="0 0 1080 288" xmlns="http://www.w3.org/2000/svg" version="1.1">
 <metadata>
  <rdf:RDF xmlns:dc="http://purl.org/dc/elements/1.1/" xmlns:cc="http://creativecommons.org/ns#" xmlns:rdf="http://www.w3.org/1999/02/22-rdf-syntax-ns#">
   <cc:Work>
    <dc:type rdf:resource="http://purl.org/dc/dcmitype/StillImage"/>
    <dc:date>2025-07-23T22:58:34.498160</dc:date>
    <dc:format>image/svg+xml</dc:format>
    <dc:creator>
     <cc:Agent>
      <dc:title>Matplotlib v3.7.5, https://matplotlib.org/</dc:title>
     </cc:Agent>
    </dc:creator>
   </cc:Work>
  </rdf:RDF>
 </metadata>
 <defs>
  <style type="text/css">*{stroke-linejoin: round; stroke-linecap: butt}</style>
 </defs>
 <g id="figure_1">
  <g id="patch_1">
   <path d="M 0 288 
L 1080 288 
L 1080 0 
L 0 0 
z
" style="fill: #f0f0f0"/>
  </g>
  <g id="axes_1">
   <g id="patch_2">
    <path d="M 36.41 254.74 
L 1067.04 254.74 
L 1067.04 40.32 
L 36.41 40.32 
z
" style="fill: #ffffff"/>
   </g>
   <g id="matplotlib.axis_1">
    <g id="xtick_1">
     <g id="line2d_1">
      <defs>
       <path id="md59253b617" d="M 0 0 
L 0 6 
" style="stroke: #262626; stroke-width: 1.25"/>
      </defs>
      <g>
       <use xlink:href="#md59253b617" x="139.473" y="254.74" style="fill: #262626; stroke: #262626; stroke-width: 1.25"/>
      </g>
     </g>
     <g id="text_1">
      <!-- 納品数量 -->
      <g style="fill: #262626" transform="translate(126.269563 272.598281) scale(0.11 -0.11)">
       <defs>
        <path id="DejaVuSans-7d0d" d="M 319 -1131 
L 319 4513 
L 3519 4513 
L 3519 -1131 
L 319 -1131 
z
M 678 -775 
L 3163 -775 
L 3163 4153 
L 678 4153 
L 678 -775 
z
" transform="scale(0.015625)"/>
        <path id="DejaVuSans-54c1" d="M 319 -1131 
L 319 4513 
L 3519 4513 
L 3519 -1131 
L 319 -1131 
z
M 678 -775 
L 3163 -775 
L 3163 4153 
L 678 4153 
L 678 -775 
z
" transform="scale(0.015625)"/>
        <path id="DejaVuSans-6570" d="M 319 -1131 
L 319 4513 
L 3519 4513 
L 3519 -1131 
L 319 -1131 
z
M 678 -775 
L 3163 -775 
L 3163 4153 
L 678 4153 
L 678 -775 
z
" transform="scale(0.015625)"/>
        <path id="DejaVuSans-91cf" d="M 319 -1131 
L 319 4513 
L 3519 4513 
L 3519 -1131 
L 319 -1131 
z
M 678 -775 
L 3163 -775 
L 3163 4153 
L 678 4153 
L 678 -775 
z
" transform="scale(0.015625)"/>
       </defs>
       <use xlink:href="#DejaVuSans-7d0d"/>
       <use xlink:href="#DejaVuSans-54c1" x="60.009766"/>
       <use xlink:href="#DejaVuSans-6570" x="120.019531"/>
       <use xlink:href="#DejaVuSans-91cf" x="180.029297"/>
      </g>
     </g>
    </g>
    <g id="xtick_2">
     <g id="line2d_2">
      <g>
       <use xlink:href="#md59253b617" x="345.599" y="254.74" style="fill: #262626; stroke: #262626; stroke-width: 1.25"/>
      </g>
     </g>
     <g id="text_2">
      <!-- 売上数量 -->
      <g style="fill: #262626" transform="translate(332.395562 272.598281) scale(0.11 -0.11)">
       <defs>
        <path id="DejaVuSans-58f2" d="M 319 -1131 
L 319 4513 
L 3519 4513 
L 3519 -1131 
L 319 -1131 
z
M 678 -775 
L 3163 -775 
L 3163 4153 
L 678 4153 
L 678 -775 
z
" transform="scale(0.015625)"/>
        <path id="DejaVuSans-4e0a" d="M 319 -1131 
L 319 4513 
L 3519 4513 
L 3519 -1131 
L 319 -1131 
z
M 678 -775 
L 3163 -775 
L 3163 4153 
L 678 4153 
L 678 -775 
z
" transform="scale(0.015625)"/>
       </defs>
       <use xlink:href="#DejaVuSans-58f2"/>
       <use xlink:href="#DejaVuSans-4e0a" x="60.009766"/>
       <use xlink:href="#DejaVuSans-6570" x="120.019531"/>
       <use xlink:href="#DejaVuSans-91cf" x="180.029297"/>
      </g>
     </g>
    </g>
    <g id="xtick_3">
     <g id="line2d_3">
      <g>
       <use xlink:href="#md59253b617" x="551.725" y="254.74" style="fill: #262626; stroke: #262626; stroke-width: 1.25"/>
      </g>
     </g>
     <g id="text_3">
      <!-- 売上率 -->
      <g style="fill: #262626" transform="translate(541.822422 272.598281) scale(0.11 -0.11)">
       <defs>
        <path id="DejaVuSans-7387" d="M 319 -1131 
L 319 4513 
L 3519 4513 
L 3519 -1131 
L 319 -1131 
z
M 678 -775 
L 3163 -775 
L 3163 4153 
L 678 4153 
L 678 -775 
z
" transform="scale(0.015625)"/>
       </defs>
       <use xlink:href="#DejaVuSans-58f2"/>
       <use xlink:href="#DejaVuSans-4e0a" x="60.009766"/>
       <use xlink:href="#DejaVuSans-7387" x="120.019531"/>
      </g>
     </g>
    </g>
    <g id="xtick_4">
     <g id="line2d_4">
      <g>
       <use xlink:href="#md59253b617" x="757.851" y="254.74" style="fill: #262626; stroke: #262626; stroke-width: 1.25"/>
      </g>
     </g>
     <g id="text_4">
      <!-- 単価 -->
      <g style="fill: #262626" transform="translate(751.249281 272.598281) scale(0.11 -0.11)">
       <defs>
        <path id="DejaVuSans-5358" d="M 319 -1131 
L 319 4513 
L 3519 4513 
L 3519 -1131 
L 319 -1131 
z
M 678 -775 
L 3163 -775 
L 3163 4153 
L 678 4153 
L 678 -775 
z
" transform="scale(0.015625)"/>
        <path id="DejaVuSans-4fa1" d="M 319 -1131 
L 319 4513 
L 3519 4513 
L 3519 -1131 
L 319 -1131 
z
M 678 -775 
L 3163 -775 
L 3163 4153 
L 678 4153 
L 678 -775 
z
" transform="scale(0.015625)"/>
       </defs>
       <use xlink:href="#DejaVuSans-5358"/>
       <use xlink:href="#DejaVuSans-4fa1" x="60.009766"/>
      </g>
     </g>
    </g>
    <g id="xtick_5">
     <g id="line2d_5">
      <g>
       <use xlink:href="#md59253b617" x="963.977" y="254.74" style="fill: #262626; stroke: #262626; stroke-width: 1.25"/>
      </g>
     </g>
     <g id="text_5">
      <!-- 売上金額 -->
      <g style="fill: #262626" transform="translate(950.773562 272.598281) scale(0.11 -0.11)">
       <defs>
        <path id="DejaVuSans-91d1" d="M 319 -1131 
L 319 4513 
L 3519 4513 
L 3519 -1131 
L 319 -1131 
z
M 678 -775 
L 3163 -775 
L 3163 4153 
L 678 4153 
L 678 -775 
z
" transform="scale(0.015625)"/>
        <path id="DejaVuSans-984d" d="M 319 -1131 
L 319 4513 
L 3519 4513 
L 3519 -1131 
L 319 -1131 
z
M 678 -775 
L 3163 -775 
L 3163 4153 
L 678 4153 
L 678 -775 
z
" transform="scale(0.015625)"/>
       </defs>
       <use xlink:href="#DejaVuSans-58f2"/>
       <use xlink:href="#DejaVuSans-4e0a" x="60.009766"/>
       <use xlink:href="#DejaVuSans-91d1" x="120.019531"/>
       <use xlink:href="#DejaVuSans-984d" x="180.029297"/>
      </g>
     </g>
    </g>
   </g>
   <g id="matplotlib.axis_2">
    <g id="ytick_1">
     <g id="line2d_6">
      <defs>
       <path id="mc2801a1e2b" d="M 0 0 
L -6 0 
" style="stroke: #262626; stroke-width: 1.25"/>
      </defs>
      <g>
       <use xlink:href="#mc2801a1e2b" x="36.41" y="242.909386" style="fill: #262626; stroke: #262626; stroke-width: 1.25"/>
      </g>
     </g>
     <g id="text_6">
      <!-- 0 -->
      <g style="fill: #262626" transform="translate(19.91125 247.088527) scale(0.11 -0.11)">
       <defs>
        <path id="DejaVuSans-30" d="M 2034 4250 
Q 1547 4250 1301 3770 
Q 1056 3291 1056 2328 
Q 1056 1369 1301 889 
Q 1547 409 2034 409 
Q 2525 409 2770 889 
Q 3016 1369 3016 2328 
Q 3016 3291 2770 3770 
Q 2525 4250 2034 4250 
z
M 2034 4750 
Q 2819 4750 3233 4129 
Q 3647 3509 3647 2328 
Q 3647 1150 3233 529 
Q 2819 -91 2034 -91 
Q 1250 -91 836 529 
Q 422 1150 422 2328 
Q 422 3509 836 4129 
Q 1250 4750 2034 4750 
z
" transform="scale(0.015625)"/>
       </defs>
       <use xlink:href="#DejaVuSans-30"/>
      </g>
     </g>
    </g>
    <g id="ytick_2">
     <g id="line2d_7">
      <g>
       <use xlink:href="#mc2801a1e2b" x="36.41" y="197.000007" style="fill: #262626; stroke: #262626; stroke-width: 1.25"/>
      </g>
     </g>
     <g id="text_7">
      <!-- 20 -->
      <g style="fill: #262626" transform="translate(12.9125 201.179148) scale(0.11 -0.11)">
       <defs>
        <path id="DejaVuSans-32" d="M 1228 531 
L 3431 531 
L 3431 0 
L 469 0 
L 469 531 
Q 828 903 1448 1529 
Q 2069 2156 2228 2338 
Q 2531 2678 2651 2914 
Q 2772 3150 2772 3378 
Q 2772 3750 2511 3984 
Q 2250 4219 1831 4219 
Q 1534 4219 1204 4116 
Q 875 4013 500 3803 
L 500 4441 
Q 881 4594 1212 4672 
Q 1544 4750 1819 4750 
Q 2544 4750 2975 4387 
Q 3406 4025 3406 3419 
Q 3406 3131 3298 2873 
Q 3191 2616 2906 2266 
Q 2828 2175 2409 1742 
Q 1991 1309 1228 531 
z
" transform="scale(0.015625)"/>
       </defs>
       <use xlink:href="#DejaVuSans-32"/>
       <use xlink:href="#DejaVuSans-30" x="63.623047"/>
      </g>
     </g>
    </g>
    <g id="ytick_3">
     <g id="line2d_8">
      <g>
       <use xlink:href="#mc2801a1e2b" x="36.41" y="151.090628" style="fill: #262626; stroke: #262626; stroke-width: 1.25"/>
      </g>
     </g>
     <g id="text_8">
      <!-- 40 -->
      <g style="fill: #262626" transform="translate(12.9125 155.269769) scale(0.11 -0.11)">
       <defs>
        <path id="DejaVuSans-34" d="M 2419 4116 
L 825 1625 
L 2419 1625 
L 2419 4116 
z
M 2253 4666 
L 3047 4666 
L 3047 1625 
L 3713 1625 
L 3713 1100 
L 3047 1100 
L 3047 0 
L 2419 0 
L 2419 1100 
L 313 1100 
L 313 1709 
L 2253 4666 
z
" transform="scale(0.015625)"/>
       </defs>
       <use xlink:href="#DejaVuSans-34"/>
       <use xlink:href="#DejaVuSans-30" x="63.623047"/>
      </g>
     </g>
    </g>
    <g id="ytick_4">
     <g id="line2d_9">
      <g>
       <use xlink:href="#mc2801a1e2b" x="36.41" y="105.181249" style="fill: #262626; stroke: #262626; stroke-width: 1.25"/>
      </g>
     </g>
     <g id="text_9">
      <!-- 60 -->
      <g style="fill: #262626" transform="translate(12.9125 109.36039) scale(0.11 -0.11)">
       <defs>
        <path id="DejaVuSans-36" d="M 2113 2584 
Q 1688 2584 1439 2293 
Q 1191 2003 1191 1497 
Q 1191 994 1439 701 
Q 1688 409 2113 409 
Q 2538 409 2786 701 
Q 3034 994 3034 1497 
Q 3034 2003 2786 2293 
Q 2538 2584 2113 2584 
z
M 3366 4563 
L 3366 3988 
Q 3128 4100 2886 4159 
Q 2644 4219 2406 4219 
Q 1781 4219 1451 3797 
Q 1122 3375 1075 2522 
Q 1259 2794 1537 2939 
Q 1816 3084 2150 3084 
Q 2853 3084 3261 2657 
Q 3669 2231 3669 1497 
Q 3669 778 3244 343 
Q 2819 -91 2113 -91 
Q 1303 -91 875 529 
Q 447 1150 447 2328 
Q 447 3434 972 4092 
Q 1497 4750 2381 4750 
Q 2619 4750 2861 4703 
Q 3103 4656 3366 4563 
z
" transform="scale(0.015625)"/>
       </defs>
       <use xlink:href="#DejaVuSans-36"/>
       <use xlink:href="#DejaVuSans-30" x="63.623047"/>
      </g>
     </g>
    </g>
    <g id="ytick_5">
     <g id="line2d_10">
      <g>
       <use xlink:href="#mc2801a1e2b" x="36.41" y="59.27187" style="fill: #262626; stroke: #262626; stroke-width: 1.25"/>
      </g>
     </g>
     <g id="text_10">
      <!-- 80 -->
      <g style="fill: #262626" transform="translate(12.9125 63.451011) scale(0.11 -0.11)">
       <defs>
        <path id="DejaVuSans-38" d="M 2034 2216 
Q 1584 2216 1326 1975 
Q 1069 1734 1069 1313 
Q 1069 891 1326 650 
Q 1584 409 2034 409 
Q 2484 409 2743 651 
Q 3003 894 3003 1313 
Q 3003 1734 2745 1975 
Q 2488 2216 2034 2216 
z
M 1403 2484 
Q 997 2584 770 2862 
Q 544 3141 544 3541 
Q 544 4100 942 4425 
Q 1341 4750 2034 4750 
Q 2731 4750 3128 4425 
Q 3525 4100 3525 3541 
Q 3525 3141 3298 2862 
Q 3072 2584 2669 2484 
Q 3125 2378 3379 2068 
Q 3634 1759 3634 1313 
Q 3634 634 3220 271 
Q 2806 -91 2034 -91 
Q 1263 -91 848 271 
Q 434 634 434 1313 
Q 434 1759 690 2068 
Q 947 2378 1403 2484 
z
M 1172 3481 
Q 1172 3119 1398 2916 
Q 1625 2713 2034 2713 
Q 2441 2713 2670 2916 
Q 2900 3119 2900 3481 
Q 2900 3844 2670 4047 
Q 2441 4250 2034 4250 
Q 1625 4250 1398 4047 
Q 1172 3844 1172 3481 
z
" transform="scale(0.015625)"/>
       </defs>
       <use xlink:href="#DejaVuSans-38"/>
       <use xlink:href="#DejaVuSans-30" x="63.623047"/>
      </g>
     </g>
    </g>
   </g>
   <g id="PolyCollection_1">
    <defs>
     <path id="m06ed19dcc6" d="M 144.143797 -43.698081 
L 134.802203 -43.698081 
L 57.0226 -44.705021 
L 114.291967 -45.71196 
L 137.295039 -46.7189 
L 138.971206 -47.725839 
L 139.064526 -48.732778 
L 139.168575 -49.739718 
L 139.443177 -50.746657 
L 139.44245 -51.753597 
L 139.432333 -52.760536 
L 139.403143 -53.767476 
L 139.449557 -54.774415 
L 139.452463 -55.781355 
L 139.45241 -56.788294 
L 139.419892 -57.795234 
L 139.45266 -58.802173 
L 139.4449 -59.809112 
L 139.471335 -60.816052 
L 139.473 -61.822991 
L 139.473 -62.829931 
L 139.473 -63.83687 
L 139.473 -64.84381 
L 139.473 -65.850749 
L 139.473 -66.857689 
L 139.472982 -67.864628 
L 139.46432 -68.871568 
L 139.459352 -69.878507 
L 139.472306 -70.885447 
L 139.451343 -71.892386 
L 139.47048 -72.899325 
L 139.467811 -73.906265 
L 139.454708 -74.913204 
L 139.445579 -75.920144 
L 139.429674 -76.927083 
L 139.472164 -77.934023 
L 139.473 -78.940962 
L 139.473 -79.947902 
L 139.473 -80.954841 
L 139.473 -81.961781 
L 139.473 -82.96872 
L 139.473 -83.97566 
L 139.473 -84.982599 
L 139.473 -85.989538 
L 139.473 -86.996478 
L 139.473 -88.003417 
L 139.473 -89.010357 
L 139.473 -90.017296 
L 139.473 -91.024236 
L 139.473 -92.031175 
L 139.473 -93.038115 
L 139.473 -94.045054 
L 139.472694 -95.051994 
L 139.453524 -96.058933 
L 139.468859 -97.065872 
L 139.472997 -98.072812 
L 139.473 -99.079751 
L 139.473 -100.086691 
L 139.473 -101.09363 
L 139.473 -102.10057 
L 139.473 -103.107509 
L 139.473 -104.114449 
L 139.473 -105.121388 
L 139.473 -106.128328 
L 139.473 -107.135267 
L 139.473 -108.142207 
L 139.473 -109.149146 
L 139.473 -110.156085 
L 139.473 -111.163025 
L 139.473 -112.169964 
L 139.473 -113.176904 
L 139.471567 -114.183843 
L 139.450415 -115.190783 
L 139.471812 -116.197722 
L 139.473 -117.204662 
L 139.473 -118.211601 
L 139.473 -119.218541 
L 139.473 -120.22548 
L 139.473 -121.23242 
L 139.473 -122.239359 
L 139.473 -123.246298 
L 139.473 -124.253238 
L 139.473 -125.260177 
L 139.473 -126.267117 
L 139.473 -127.274056 
L 139.473 -128.280996 
L 139.473 -129.287935 
L 139.473 -130.294875 
L 139.473 -131.301814 
L 139.473 -132.308754 
L 139.473 -133.315693 
L 139.473 -134.322633 
L 139.473 -135.329572 
L 139.473 -136.336511 
L 139.473 -137.343451 
L 139.473 -138.35039 
L 139.473 -139.35733 
L 139.473 -140.364269 
L 139.472521 -141.371209 
L 139.452036 -142.378148 
L 139.469941 -143.385088 
L 139.476059 -143.385088 
L 139.476059 -143.385088 
L 139.493964 -142.378148 
L 139.473479 -141.371209 
L 139.473 -140.364269 
L 139.473 -139.35733 
L 139.473 -138.35039 
L 139.473 -137.343451 
L 139.473 -136.336511 
L 139.473 -135.329572 
L 139.473 -134.322633 
L 139.473 -133.315693 
L 139.473 -132.308754 
L 139.473 -131.301814 
L 139.473 -130.294875 
L 139.473 -129.287935 
L 139.473 -128.280996 
L 139.473 -127.274056 
L 139.473 -126.267117 
L 139.473 -125.260177 
L 139.473 -124.253238 
L 139.473 -123.246298 
L 139.473 -122.239359 
L 139.473 -121.23242 
L 139.473 -120.22548 
L 139.473 -119.218541 
L 139.473 -118.211601 
L 139.473 -117.204662 
L 139.474188 -116.197722 
L 139.495585 -115.190783 
L 139.474433 -114.183843 
L 139.473 -113.176904 
L 139.473 -112.169964 
L 139.473 -111.163025 
L 139.473 -110.156085 
L 139.473 -109.149146 
L 139.473 -108.142207 
L 139.473 -107.135267 
L 139.473 -106.128328 
L 139.473 -105.121388 
L 139.473 -104.114449 
L 139.473 -103.107509 
L 139.473 -102.10057 
L 139.473 -101.09363 
L 139.473 -100.086691 
L 139.473 -99.079751 
L 139.473003 -98.072812 
L 139.477141 -97.065872 
L 139.492476 -96.058933 
L 139.473306 -95.051994 
L 139.473 -94.045054 
L 139.473 -93.038115 
L 139.473 -92.031175 
L 139.473 -91.024236 
L 139.473 -90.017296 
L 139.473 -89.010357 
L 139.473 -88.003417 
L 139.473 -86.996478 
L 139.473 -85.989538 
L 139.473 -84.982599 
L 139.473 -83.97566 
L 139.473 -82.96872 
L 139.473 -81.961781 
L 139.473 -80.954841 
L 139.473 -79.947902 
L 139.473 -78.940962 
L 139.473836 -77.934023 
L 139.516326 -76.927083 
L 139.500421 -75.920144 
L 139.491292 -74.913204 
L 139.478189 -73.906265 
L 139.47552 -72.899325 
L 139.494657 -71.892386 
L 139.473694 -70.885447 
L 139.486648 -69.878507 
L 139.48168 -68.871568 
L 139.473018 -67.864628 
L 139.473 -66.857689 
L 139.473 -65.850749 
L 139.473 -64.84381 
L 139.473 -63.83687 
L 139.473 -62.829931 
L 139.473 -61.822991 
L 139.474665 -60.816052 
L 139.5011 -59.809112 
L 139.49334 -58.802173 
L 139.526108 -57.795234 
L 139.49359 -56.788294 
L 139.493537 -55.781355 
L 139.496443 -54.774415 
L 139.542857 -53.767476 
L 139.513667 -52.760536 
L 139.50355 -51.753597 
L 139.502823 -50.746657 
L 139.777425 -49.739718 
L 139.881474 -48.732778 
L 139.974794 -47.725839 
L 141.650961 -46.7189 
L 164.654033 -45.71196 
L 221.9234 -44.705021 
L 144.143797 -43.698081 
z
" style="stroke: #484848; stroke-width: 3"/>
    </defs>
    <g clip-path="url(#pe79bdd6eaa)">
     <use xlink:href="#m06ed19dcc6" x="0" y="288" style="fill: #cb3335; stroke: #484848; stroke-width: 3"/>
    </g>
   </g>
   <g id="PolyCollection_2">
    <defs>
     <path id="mb3ccc496b1" d="M 352.993032 -43.880105 
L 338.204968 -43.880105 
L 263.1486 -44.618823 
L 304.04295 -45.357541 
L 337.422038 -46.096259 
L 342.809319 -46.834977 
L 344.660529 -47.573694 
L 345.123145 -48.312412 
L 345.290708 -49.05113 
L 345.313172 -49.789848 
L 345.400898 -50.528565 
L 345.483131 -51.267283 
L 345.513998 -52.006001 
L 345.556646 -52.744719 
L 345.593631 -53.483437 
L 345.579327 -54.222154 
L 345.546567 -54.960872 
L 345.563685 -55.69959 
L 345.570658 -56.438308 
L 345.576781 -57.177025 
L 345.598039 -57.915743 
L 345.59821 -58.654461 
L 345.580998 -59.393179 
L 345.58425 -60.131897 
L 345.585901 -60.870614 
L 345.596927 -61.609332 
L 345.598993 -62.34805 
L 345.599 -63.086768 
L 345.599 -63.825485 
L 345.599 -64.564203 
L 345.599 -65.302921 
L 345.599 -66.041639 
L 345.599 -66.780357 
L 345.599 -67.519074 
L 345.599 -68.257792 
L 345.599 -68.99651 
L 345.599 -69.735228 
L 345.599 -70.473945 
L 345.599 -71.212663 
L 345.599 -71.951381 
L 345.599 -72.690099 
L 345.599 -73.428817 
L 345.599 -74.167534 
L 345.599 -74.906252 
L 345.599 -75.64497 
L 345.599 -76.383688 
L 345.599 -77.122405 
L 345.599 -77.861123 
L 345.59891 -78.599841 
L 345.592496 -79.338559 
L 345.589819 -80.077277 
L 345.598748 -80.815994 
L 345.599 -81.554712 
L 345.599 -82.29343 
L 345.599 -83.032148 
L 345.599 -83.770865 
L 345.599 -84.509583 
L 345.599 -85.248301 
L 345.598999 -85.987019 
L 345.598035 -86.725737 
L 345.586695 -87.464454 
L 345.595945 -88.203172 
L 345.598985 -88.94189 
L 345.599 -89.680608 
L 345.599 -90.419325 
L 345.599 -91.158043 
L 345.599 -91.896761 
L 345.599 -92.635479 
L 345.599 -93.374197 
L 345.599 -94.112914 
L 345.599 -94.851632 
L 345.599 -95.59035 
L 345.599 -96.329068 
L 345.598968 -97.067786 
L 345.594041 -97.806503 
L 345.569139 -98.545221 
L 345.585677 -99.283939 
L 345.598784 -100.022657 
L 345.599 -100.761374 
L 345.599 -101.500092 
L 345.599 -102.23881 
L 345.599 -102.977528 
L 345.598828 -103.716246 
L 345.590846 -104.454963 
L 345.591465 -105.193681 
L 345.598691 -105.932399 
L 345.590818 -106.671117 
L 345.59125 -107.409834 
L 345.586636 -108.148552 
L 345.580098 -108.88727 
L 345.598053 -109.625988 
L 345.598905 -110.364706 
L 345.589821 -111.103423 
L 345.577176 -111.842141 
L 345.597705 -112.580859 
L 345.598998 -113.319577 
L 345.599 -114.058294 
L 345.598995 -114.797012 
L 345.597154 -115.53573 
L 345.586166 -116.274448 
L 345.597263 -117.013166 
L 345.600737 -117.013166 
L 345.600737 -117.013166 
L 345.611834 -116.274448 
L 345.600846 -115.53573 
L 345.599005 -114.797012 
L 345.599 -114.058294 
L 345.599002 -113.319577 
L 345.600295 -112.580859 
L 345.620824 -111.842141 
L 345.608179 -111.103423 
L 345.599095 -110.364706 
L 345.599947 -109.625988 
L 345.617902 -108.88727 
L 345.611364 -108.148552 
L 345.60675 -107.409834 
L 345.607182 -106.671117 
L 345.599309 -105.932399 
L 345.606535 -105.193681 
L 345.607154 -104.454963 
L 345.599172 -103.716246 
L 345.599 -102.977528 
L 345.599 -102.23881 
L 345.599 -101.500092 
L 345.599 -100.761374 
L 345.599216 -100.022657 
L 345.612323 -99.283939 
L 345.628861 -98.545221 
L 345.603959 -97.806503 
L 345.599032 -97.067786 
L 345.599 -96.329068 
L 345.599 -95.59035 
L 345.599 -94.851632 
L 345.599 -94.112914 
L 345.599 -93.374197 
L 345.599 -92.635479 
L 345.599 -91.896761 
L 345.599 -91.158043 
L 345.599 -90.419325 
L 345.599 -89.680608 
L 345.599015 -88.94189 
L 345.602055 -88.203172 
L 345.611305 -87.464454 
L 345.599965 -86.725737 
L 345.599001 -85.987019 
L 345.599 -85.248301 
L 345.599 -84.509583 
L 345.599 -83.770865 
L 345.599 -83.032148 
L 345.599 -82.29343 
L 345.599 -81.554712 
L 345.599252 -80.815994 
L 345.608181 -80.077277 
L 345.605504 -79.338559 
L 345.59909 -78.599841 
L 345.599 -77.861123 
L 345.599 -77.122405 
L 345.599 -76.383688 
L 345.599 -75.64497 
L 345.599 -74.906252 
L 345.599 -74.167534 
L 345.599 -73.428817 
L 345.599 -72.690099 
L 345.599 -71.951381 
L 345.599 -71.212663 
L 345.599 -70.473945 
L 345.599 -69.735228 
L 345.599 -68.99651 
L 345.599 -68.257792 
L 345.599 -67.519074 
L 345.599 -66.780357 
L 345.599 -66.041639 
L 345.599 -65.302921 
L 345.599 -64.564203 
L 345.599 -63.825485 
L 345.599 -63.086768 
L 345.599007 -62.34805 
L 345.601073 -61.609332 
L 345.612099 -60.870614 
L 345.61375 -60.131897 
L 345.617002 -59.393179 
L 345.59979 -58.654461 
L 345.599961 -57.915743 
L 345.621219 -57.177025 
L 345.627342 -56.438308 
L 345.634315 -55.69959 
L 345.651433 -54.960872 
L 345.618673 -54.222154 
L 345.604369 -53.483437 
L 345.641354 -52.744719 
L 345.684002 -52.006001 
L 345.714869 -51.267283 
L 345.797102 -50.528565 
L 345.884828 -49.789848 
L 345.907292 -49.05113 
L 346.074855 -48.312412 
L 346.537471 -47.573694 
L 348.388681 -46.834977 
L 353.775962 -46.096259 
L 387.15505 -45.357541 
L 428.0494 -44.618823 
L 352.993032 -43.880105 
z
" style="stroke: #484848; stroke-width: 3"/>
    </defs>
    <g clip-path="url(#pe79bdd6eaa)">
     <use xlink:href="#mb3ccc496b1" x="0" y="288" style="fill: #477ca8; stroke: #484848; stroke-width: 3"/>
    </g>
   </g>
   <g id="PolyCollection_3">
    <defs>
     <path id="mead4f4cb52" d="M 563.18056 -43.006364 
L 540.26944 -43.006364 
L 511.754334 -43.287657 
L 474.746571 -43.568951 
L 469.2746 -43.850244 
L 501.095173 -44.131538 
L 531.192713 -44.412831 
L 542.537426 -44.694124 
L 544.346397 -44.975418 
L 544.17624 -45.256711 
L 544.017381 -45.538005 
L 543.738334 -45.819298 
L 543.578308 -46.100592 
L 544.247909 -46.381885 
L 544.80013 -46.663179 
L 544.567321 -46.944472 
L 544.438491 -47.225766 
L 544.816243 -47.507059 
L 545.128461 -47.788353 
L 544.402542 -48.069646 
L 542.889325 -48.35094 
L 543.023734 -48.632233 
L 545.372435 -48.913527 
L 547.499405 -49.19482 
L 548.408052 -49.476114 
L 548.82595 -49.757407 
L 549.251091 -50.0387 
L 549.658715 -50.319994 
L 549.771578 -50.601287 
L 549.748987 -50.882581 
L 550.11966 -51.163874 
L 550.668415 -51.445168 
L 550.966989 -51.726461 
L 551.124568 -52.007755 
L 551.261947 -52.289048 
L 551.319639 -52.570342 
L 551.178987 -52.851635 
L 550.878543 -53.132929 
L 550.810789 -53.414222 
L 551.10692 -53.695516 
L 551.380748 -53.976809 
L 551.460776 -54.258103 
L 551.482241 -54.539396 
L 551.520398 -54.820689 
L 551.558241 -55.101983 
L 551.559995 -55.383276 
L 551.544753 -55.66457 
L 551.576678 -55.945863 
L 551.633368 -56.227157 
L 551.655192 -56.50845 
L 551.654722 -56.789744 
L 551.665703 -57.071037 
L 551.6802 -57.352331 
L 551.661581 -57.633624 
L 551.610199 -57.914918 
L 551.592757 -58.196211 
L 551.639935 -58.477505 
L 551.694858 -58.758798 
L 551.719119 -59.040092 
L 551.724262 -59.321385 
L 551.723916 -59.602679 
L 551.719436 -59.883972 
L 551.708737 -60.165265 
L 551.69885 -60.446559 
L 551.701872 -60.727852 
L 551.71375 -61.009146 
L 551.721989 -61.290439 
L 551.724532 -61.571733 
L 551.724625 -61.853026 
L 551.722525 -62.13432 
L 551.715075 -62.415613 
L 551.703095 -62.696907 
L 551.698409 -62.9782 
L 551.707247 -63.259494 
L 551.71848 -63.540787 
L 551.723662 -63.822081 
L 551.7246 -64.103374 
L 551.723328 -64.384668 
L 551.719013 -64.665961 
L 551.713142 -64.947255 
L 551.712083 -65.228548 
L 551.717261 -65.509841 
L 551.72245 -65.791135 
L 551.724537 -66.072428 
L 551.724943 -66.353722 
L 551.72485 -66.635015 
L 551.723882 -66.916309 
L 551.720354 -67.197602 
L 551.714375 -67.478896 
L 551.711636 -67.760189 
L 551.715755 -68.041483 
L 551.721482 -68.322776 
L 551.724262 -68.60407 
L 551.724876 -68.885363 
L 551.724582 -69.166657 
L 551.722647 -69.44795 
L 551.717614 -69.729244 
L 551.712249 -70.010537 
L 551.712893 -70.29183 
L 551.718677 -70.573124 
L 551.723184 -70.854417 
L 551.726816 -70.854417 
L 551.726816 -70.854417 
L 551.731323 -70.573124 
L 551.737107 -70.29183 
L 551.737751 -70.010537 
L 551.732386 -69.729244 
L 551.727353 -69.44795 
L 551.725418 -69.166657 
L 551.725124 -68.885363 
L 551.725738 -68.60407 
L 551.728518 -68.322776 
L 551.734245 -68.041483 
L 551.738364 -67.760189 
L 551.735625 -67.478896 
L 551.729646 -67.197602 
L 551.726118 -66.916309 
L 551.72515 -66.635015 
L 551.725057 -66.353722 
L 551.725463 -66.072428 
L 551.72755 -65.791135 
L 551.732739 -65.509841 
L 551.737917 -65.228548 
L 551.736858 -64.947255 
L 551.730987 -64.665961 
L 551.726672 -64.384668 
L 551.7254 -64.103374 
L 551.726338 -63.822081 
L 551.73152 -63.540787 
L 551.742753 -63.259494 
L 551.751591 -62.9782 
L 551.746905 -62.696907 
L 551.734925 -62.415613 
L 551.727475 -62.13432 
L 551.725375 -61.853026 
L 551.725468 -61.571733 
L 551.728011 -61.290439 
L 551.73625 -61.009146 
L 551.748128 -60.727852 
L 551.75115 -60.446559 
L 551.741263 -60.165265 
L 551.730564 -59.883972 
L 551.726084 -59.602679 
L 551.725738 -59.321385 
L 551.730881 -59.040092 
L 551.755142 -58.758798 
L 551.810065 -58.477505 
L 551.857243 -58.196211 
L 551.839801 -57.914918 
L 551.788419 -57.633624 
L 551.7698 -57.352331 
L 551.784297 -57.071037 
L 551.795278 -56.789744 
L 551.794808 -56.50845 
L 551.816632 -56.227157 
L 551.873322 -55.945863 
L 551.905247 -55.66457 
L 551.890005 -55.383276 
L 551.891759 -55.101983 
L 551.929602 -54.820689 
L 551.967759 -54.539396 
L 551.989224 -54.258103 
L 552.069252 -53.976809 
L 552.34308 -53.695516 
L 552.639211 -53.414222 
L 552.571457 -53.132929 
L 552.271013 -52.851635 
L 552.130361 -52.570342 
L 552.188053 -52.289048 
L 552.325432 -52.007755 
L 552.483011 -51.726461 
L 552.781585 -51.445168 
L 553.33034 -51.163874 
L 553.701013 -50.882581 
L 553.678422 -50.601287 
L 553.791285 -50.319994 
L 554.198909 -50.0387 
L 554.62405 -49.757407 
L 555.041948 -49.476114 
L 555.950595 -49.19482 
L 558.077565 -48.913527 
L 560.426266 -48.632233 
L 560.560675 -48.35094 
L 559.047458 -48.069646 
L 558.321539 -47.788353 
L 558.633757 -47.507059 
L 559.011509 -47.225766 
L 558.882679 -46.944472 
L 558.64987 -46.663179 
L 559.202091 -46.381885 
L 559.871692 -46.100592 
L 559.711666 -45.819298 
L 559.432619 -45.538005 
L 559.27376 -45.256711 
L 559.103603 -44.975418 
L 560.912574 -44.694124 
L 572.257287 -44.412831 
L 602.354827 -44.131538 
L 634.1754 -43.850244 
L 628.703429 -43.568951 
L 591.695666 -43.287657 
L 563.18056 -43.006364 
z
" style="stroke: #484848; stroke-width: 3"/>
    </defs>
    <g clip-path="url(#pe79bdd6eaa)">
     <use xlink:href="#mead4f4cb52" x="0" y="288" style="fill: #59a257; stroke: #484848; stroke-width: 3"/>
    </g>
   </g>
   <g id="PolyCollection_4">
    <defs>
     <path id="m8c3751c516" d="M 762.854531 -43.439156 
L 752.847469 -43.439156 
L 675.4006 -45.403747 
L 757.080139 -47.368337 
L 757.786662 -49.332928 
L 757.682341 -51.297519 
L 757.789582 -53.26211 
L 757.799356 -55.2267 
L 757.832094 -57.191291 
L 757.850422 -59.155882 
L 757.850997 -61.120472 
L 757.725843 -63.085063 
L 757.795019 -65.049654 
L 757.851 -67.014245 
L 757.851 -68.978835 
L 757.851 -70.943426 
L 757.851 -72.908017 
L 757.851 -74.872607 
L 757.851 -76.837198 
L 757.851 -78.801789 
L 757.851 -80.766379 
L 757.765365 -82.73097 
L 757.822259 -84.695561 
L 757.851 -86.660152 
L 757.851 -88.624742 
L 757.851 -90.589333 
L 757.851 -92.553924 
L 757.851 -94.518514 
L 757.851 -96.483105 
L 757.851 -98.447696 
L 757.851 -100.412287 
L 757.851 -102.376877 
L 757.851 -104.341468 
L 757.851 -106.306059 
L 757.851 -108.270649 
L 757.851 -110.23524 
L 757.851 -112.199831 
L 757.851 -114.164422 
L 757.851 -116.129012 
L 757.851 -118.093603 
L 757.851 -120.058194 
L 757.851 -122.022784 
L 757.851 -123.987375 
L 757.851 -125.951966 
L 757.851 -127.916557 
L 757.851 -129.881147 
L 757.851 -131.845738 
L 757.851 -133.810329 
L 757.851 -135.774919 
L 757.851 -137.73951 
L 757.851 -139.704101 
L 757.851 -141.668692 
L 757.851 -143.633282 
L 757.851 -145.597873 
L 757.851 -147.562464 
L 757.851 -149.527054 
L 757.851 -151.491645 
L 757.851 -153.456236 
L 757.851 -155.420827 
L 757.851 -157.385417 
L 757.851 -159.350008 
L 757.851 -161.314599 
L 757.851 -163.279189 
L 757.851 -165.24378 
L 757.851 -167.208371 
L 757.851 -169.172961 
L 757.851 -171.137552 
L 757.851 -173.102143 
L 757.851 -175.066734 
L 757.851 -177.031324 
L 757.851 -178.995915 
L 757.851 -180.960506 
L 757.851 -182.925096 
L 757.851 -184.889687 
L 757.851 -186.854278 
L 757.851 -188.818869 
L 757.851 -190.783459 
L 757.851 -192.74805 
L 757.851 -194.712641 
L 757.851 -196.677231 
L 757.851 -198.641822 
L 757.851 -200.606413 
L 757.851 -202.571004 
L 757.851 -204.535594 
L 757.851 -206.500185 
L 757.851 -208.464776 
L 757.851 -210.429366 
L 757.851 -212.393957 
L 757.851 -214.358548 
L 757.851 -216.323139 
L 757.851 -218.287729 
L 757.851 -220.25232 
L 757.851 -222.216911 
L 757.851 -224.181501 
L 757.851 -226.146092 
L 757.851 -228.110683 
L 757.851 -230.075274 
L 757.851 -232.039864 
L 757.851 -234.004455 
L 757.850911 -235.969046 
L 757.847109 -237.933636 
L 757.854891 -237.933636 
L 757.854891 -237.933636 
L 757.851089 -235.969046 
L 757.851 -234.004455 
L 757.851 -232.039864 
L 757.851 -230.075274 
L 757.851 -228.110683 
L 757.851 -226.146092 
L 757.851 -224.181501 
L 757.851 -222.216911 
L 757.851 -220.25232 
L 757.851 -218.287729 
L 757.851 -216.323139 
L 757.851 -214.358548 
L 757.851 -212.393957 
L 757.851 -210.429366 
L 757.851 -208.464776 
L 757.851 -206.500185 
L 757.851 -204.535594 
L 757.851 -202.571004 
L 757.851 -200.606413 
L 757.851 -198.641822 
L 757.851 -196.677231 
L 757.851 -194.712641 
L 757.851 -192.74805 
L 757.851 -190.783459 
L 757.851 -188.818869 
L 757.851 -186.854278 
L 757.851 -184.889687 
L 757.851 -182.925096 
L 757.851 -180.960506 
L 757.851 -178.995915 
L 757.851 -177.031324 
L 757.851 -175.066734 
L 757.851 -173.102143 
L 757.851 -171.137552 
L 757.851 -169.172961 
L 757.851 -167.208371 
L 757.851 -165.24378 
L 757.851 -163.279189 
L 757.851 -161.314599 
L 757.851 -159.350008 
L 757.851 -157.385417 
L 757.851 -155.420827 
L 757.851 -153.456236 
L 757.851 -151.491645 
L 757.851 -149.527054 
L 757.851 -147.562464 
L 757.851 -145.597873 
L 757.851 -143.633282 
L 757.851 -141.668692 
L 757.851 -139.704101 
L 757.851 -137.73951 
L 757.851 -135.774919 
L 757.851 -133.810329 
L 757.851 -131.845738 
L 757.851 -129.881147 
L 757.851 -127.916557 
L 757.851 -125.951966 
L 757.851 -123.987375 
L 757.851 -122.022784 
L 757.851 -120.058194 
L 757.851 -118.093603 
L 757.851 -116.129012 
L 757.851 -114.164422 
L 757.851 -112.199831 
L 757.851 -110.23524 
L 757.851 -108.270649 
L 757.851 -106.306059 
L 757.851 -104.341468 
L 757.851 -102.376877 
L 757.851 -100.412287 
L 757.851 -98.447696 
L 757.851 -96.483105 
L 757.851 -94.518514 
L 757.851 -92.553924 
L 757.851 -90.589333 
L 757.851 -88.624742 
L 757.851 -86.660152 
L 757.879741 -84.695561 
L 757.936635 -82.73097 
L 757.851 -80.766379 
L 757.851 -78.801789 
L 757.851 -76.837198 
L 757.851 -74.872607 
L 757.851 -72.908017 
L 757.851 -70.943426 
L 757.851 -68.978835 
L 757.851 -67.014245 
L 757.906981 -65.049654 
L 757.976157 -63.085063 
L 757.851003 -61.120472 
L 757.851578 -59.155882 
L 757.869906 -57.191291 
L 757.902644 -55.2267 
L 757.912418 -53.26211 
L 758.019659 -51.297519 
L 757.915338 -49.332928 
L 758.621861 -47.368337 
L 840.3014 -45.403747 
L 762.854531 -43.439156 
z
" style="stroke: #484848; stroke-width: 3"/>
    </defs>
    <g clip-path="url(#pe79bdd6eaa)">
     <use xlink:href="#m8c3751c516" x="0" y="288" style="fill: #905998; stroke: #484848; stroke-width: 3"/>
    </g>
   </g>
   <g id="PolyCollection_5">
    <defs>
     <path id="m0c9755acd5" d="M 968.159921 -43.858362 
L 959.794079 -43.858362 
L 881.5266 -44.716927 
L 936.192947 -45.575491 
L 959.644537 -46.434056 
L 962.900651 -47.29262 
L 963.708564 -48.151185 
L 963.85889 -49.009749 
L 963.874142 -49.868314 
L 963.936366 -50.726878 
L 963.960329 -51.585443 
L 963.957183 -52.444007 
L 963.956874 -53.302572 
L 963.975853 -54.161137 
L 963.977 -55.019701 
L 963.977 -55.878266 
L 963.977 -56.73683 
L 963.977 -57.595395 
L 963.977 -58.453959 
L 963.977 -59.312524 
L 963.977 -60.171088 
L 963.977 -61.029653 
L 963.977 -61.888217 
L 963.977 -62.746782 
L 963.977 -63.605346 
L 963.976313 -64.463911 
L 963.964834 -65.322476 
L 963.975947 -66.18104 
L 963.977 -67.039605 
L 963.977 -67.898169 
L 963.977 -68.756734 
L 963.977 -69.615298 
L 963.977 -70.473863 
L 963.977 -71.332427 
L 963.977 -72.190992 
L 963.977 -73.049556 
L 963.977 -73.908121 
L 963.977 -74.766686 
L 963.977 -75.62525 
L 963.977 -76.483815 
L 963.977 -77.342379 
L 963.977 -78.200944 
L 963.976948 -79.059508 
L 963.969593 -79.918073 
L 963.971793 -80.776637 
L 963.976981 -81.635202 
L 963.97543 -82.493766 
L 963.965255 -83.352331 
L 963.97657 -84.210895 
L 963.977 -85.06946 
L 963.977 -85.928025 
L 963.977 -86.786589 
L 963.977 -87.645154 
L 963.977 -88.503718 
L 963.977 -89.362283 
L 963.977 -90.220847 
L 963.977 -91.079412 
L 963.977 -91.937976 
L 963.977 -92.796541 
L 963.977 -93.655105 
L 963.976829 -94.51367 
L 963.966824 -95.372234 
L 963.965587 -96.230799 
L 963.960364 -97.089364 
L 963.975617 -97.947928 
L 963.976999 -98.806493 
L 963.977 -99.665057 
L 963.976586 -100.523622 
L 963.965303 -101.382186 
L 963.975383 -102.240751 
L 963.976999 -103.099315 
L 963.977 -103.95788 
L 963.977 -104.816444 
L 963.977 -105.675009 
L 963.977 -106.533574 
L 963.977 -107.392138 
L 963.977 -108.250703 
L 963.976998 -109.109267 
L 963.975029 -109.967832 
L 963.959935 -110.826396 
L 963.959425 -111.684961 
L 963.974128 -112.543525 
L 963.976996 -113.40209 
L 963.977 -114.260654 
L 963.975995 -115.119219 
L 963.964809 -115.977783 
L 963.973399 -116.836348 
L 963.966832 -117.694913 
L 963.976824 -118.553477 
L 963.977 -119.412042 
L 963.977 -120.270606 
L 963.977 -121.129171 
L 963.977 -121.987735 
L 963.977 -122.8463 
L 963.977 -123.704864 
L 963.977 -124.563429 
L 963.977 -125.421993 
L 963.977 -126.280558 
L 963.976598 -127.139123 
L 963.965343 -127.997687 
L 963.975346 -128.856252 
L 963.978654 -128.856252 
L 963.978654 -128.856252 
L 963.988657 -127.997687 
L 963.977402 -127.139123 
L 963.977 -126.280558 
L 963.977 -125.421993 
L 963.977 -124.563429 
L 963.977 -123.704864 
L 963.977 -122.8463 
L 963.977 -121.987735 
L 963.977 -121.129171 
L 963.977 -120.270606 
L 963.977 -119.412042 
L 963.977176 -118.553477 
L 963.987168 -117.694913 
L 963.980601 -116.836348 
L 963.989191 -115.977783 
L 963.978005 -115.119219 
L 963.977 -114.260654 
L 963.977004 -113.40209 
L 963.979872 -112.543525 
L 963.994575 -111.684961 
L 963.994065 -110.826396 
L 963.978971 -109.967832 
L 963.977002 -109.109267 
L 963.977 -108.250703 
L 963.977 -107.392138 
L 963.977 -106.533574 
L 963.977 -105.675009 
L 963.977 -104.816444 
L 963.977 -103.95788 
L 963.977001 -103.099315 
L 963.978617 -102.240751 
L 963.988697 -101.382186 
L 963.977414 -100.523622 
L 963.977 -99.665057 
L 963.977001 -98.806493 
L 963.978383 -97.947928 
L 963.993636 -97.089364 
L 963.988413 -96.230799 
L 963.987176 -95.372234 
L 963.977171 -94.51367 
L 963.977 -93.655105 
L 963.977 -92.796541 
L 963.977 -91.937976 
L 963.977 -91.079412 
L 963.977 -90.220847 
L 963.977 -89.362283 
L 963.977 -88.503718 
L 963.977 -87.645154 
L 963.977 -86.786589 
L 963.977 -85.928025 
L 963.977 -85.06946 
L 963.97743 -84.210895 
L 963.988745 -83.352331 
L 963.97857 -82.493766 
L 963.977019 -81.635202 
L 963.982207 -80.776637 
L 963.984407 -79.918073 
L 963.977052 -79.059508 
L 963.977 -78.200944 
L 963.977 -77.342379 
L 963.977 -76.483815 
L 963.977 -75.62525 
L 963.977 -74.766686 
L 963.977 -73.908121 
L 963.977 -73.049556 
L 963.977 -72.190992 
L 963.977 -71.332427 
L 963.977 -70.473863 
L 963.977 -69.615298 
L 963.977 -68.756734 
L 963.977 -67.898169 
L 963.977 -67.039605 
L 963.978053 -66.18104 
L 963.989166 -65.322476 
L 963.977687 -64.463911 
L 963.977 -63.605346 
L 963.977 -62.746782 
L 963.977 -61.888217 
L 963.977 -61.029653 
L 963.977 -60.171088 
L 963.977 -59.312524 
L 963.977 -58.453959 
L 963.977 -57.595395 
L 963.977 -56.73683 
L 963.977 -55.878266 
L 963.977 -55.019701 
L 963.978147 -54.161137 
L 963.997126 -53.302572 
L 963.996817 -52.444007 
L 963.993671 -51.585443 
L 964.017634 -50.726878 
L 964.079858 -49.868314 
L 964.09511 -49.009749 
L 964.245436 -48.151185 
L 965.053349 -47.29262 
L 968.309463 -46.434056 
L 991.761053 -45.575491 
L 1046.4274 -44.716927 
L 968.159921 -43.858362 
z
" style="stroke: #484848; stroke-width: 3"/>
    </defs>
    <g clip-path="url(#pe79bdd6eaa)">
     <use xlink:href="#m0c9755acd5" x="0" y="288" style="fill: #df7f20; stroke: #484848; stroke-width: 3"/>
    </g>
   </g>
   <g id="line2d_11">
    <path d="M 139.473 243.458589 
L 139.473 242.444976 
" clip-path="url(#pe79bdd6eaa)" style="fill: none; stroke: #484848; stroke-width: 4.5; stroke-linecap: round"/>
   </g>
   <g id="line2d_12">
    <path d="M 139.473 243.351893 
L 139.473 242.978456 
" clip-path="url(#pe79bdd6eaa)" style="fill: none; stroke: #484848; stroke-width: 13.5; stroke-linecap: round"/>
   </g>
   <g id="line2d_13">
    <path d="M 139.473 243.191848 
" clip-path="url(#pe79bdd6eaa)" style="fill: none; stroke: #484848; stroke-width: 1.5; stroke-linecap: round"/>
    <defs>
     <path id="m7f0c80b602" d="M 5.625 0 
L -5.625 -0 
" style="stroke: #ffffff; stroke-width: 2.7"/>
    </defs>
    <g clip-path="url(#pe79bdd6eaa)">
     <use xlink:href="#m7f0c80b602" x="139.473" y="243.191848" style="fill: #ffffff; stroke: #ffffff; stroke-width: 2.7"/>
    </g>
   </g>
   <g id="line2d_14">
    <path d="M 345.599 243.375473 
L 345.599 242.219922 
" clip-path="url(#pe79bdd6eaa)" style="fill: none; stroke: #484848; stroke-width: 4.5; stroke-linecap: round"/>
   </g>
   <g id="line2d_15">
    <path d="M 345.599 243.375473 
L 345.599 242.893993 
" clip-path="url(#pe79bdd6eaa)" style="fill: none; stroke: #484848; stroke-width: 13.5; stroke-linecap: round"/>
   </g>
   <g id="line2d_16">
    <path d="M 345.599 243.279177 
" clip-path="url(#pe79bdd6eaa)" style="fill: none; stroke: #484848; stroke-width: 1.5; stroke-linecap: round"/>
    <g clip-path="url(#pe79bdd6eaa)">
     <use xlink:href="#m7f0c80b602" x="345.599" y="243.279177" style="fill: #ffffff; stroke: #ffffff; stroke-width: 2.7"/>
    </g>
   </g>
   <g id="line2d_17">
    <path d="M 551.725 244.266022 
L 551.725 238.267653 
" clip-path="url(#pe79bdd6eaa)" style="fill: none; stroke: #484848; stroke-width: 4.5; stroke-linecap: round"/>
   </g>
   <g id="line2d_18">
    <path d="M 551.725 244.266022 
L 551.725 241.866674 
" clip-path="url(#pe79bdd6eaa)" style="fill: none; stroke: #484848; stroke-width: 13.5; stroke-linecap: round"/>
   </g>
   <g id="line2d_19">
    <path d="M 551.725 244.266022 
" clip-path="url(#pe79bdd6eaa)" style="fill: none; stroke: #484848; stroke-width: 1.5; stroke-linecap: round"/>
    <g clip-path="url(#pe79bdd6eaa)">
     <use xlink:href="#m7f0c80b602" x="551.725" y="244.266022" style="fill: #ffffff; stroke: #ffffff; stroke-width: 2.7"/>
    </g>
   </g>
   <g id="line2d_20">
    <path d="M 757.851 243.833229 
L 757.851 241.871951 
" clip-path="url(#pe79bdd6eaa)" style="fill: none; stroke: #484848; stroke-width: 4.5; stroke-linecap: round"/>
   </g>
   <g id="line2d_21">
    <path d="M 757.851 243.327467 
L 757.851 242.744488 
" clip-path="url(#pe79bdd6eaa)" style="fill: none; stroke: #484848; stroke-width: 13.5; stroke-linecap: round"/>
   </g>
   <g id="line2d_22">
    <path d="M 757.851 243.192339 
" clip-path="url(#pe79bdd6eaa)" style="fill: none; stroke: #484848; stroke-width: 1.5; stroke-linecap: round"/>
    <g clip-path="url(#pe79bdd6eaa)">
     <use xlink:href="#m7f0c80b602" x="757.851" y="243.192339" style="fill: #ffffff; stroke: #ffffff; stroke-width: 2.7"/>
    </g>
   </g>
   <g id="line2d_23">
    <path d="M 963.977 243.397217 
L 963.977 242.410504 
" clip-path="url(#pe79bdd6eaa)" style="fill: none; stroke: #484848; stroke-width: 4.5; stroke-linecap: round"/>
   </g>
   <g id="line2d_24">
    <path d="M 963.977 243.27393 
L 963.977 242.928559 
" clip-path="url(#pe79bdd6eaa)" style="fill: none; stroke: #484848; stroke-width: 13.5; stroke-linecap: round"/>
   </g>
   <g id="line2d_25">
    <path d="M 963.977 243.169322 
" clip-path="url(#pe79bdd6eaa)" style="fill: none; stroke: #484848; stroke-width: 1.5; stroke-linecap: round"/>
    <g clip-path="url(#pe79bdd6eaa)">
     <use xlink:href="#m7f0c80b602" x="963.977" y="243.169322" style="fill: #ffffff; stroke: #ffffff; stroke-width: 2.7"/>
    </g>
   </g>
   <g id="patch_3">
    <path d="M 36.41 254.74 
L 36.41 40.32 
" style="fill: none; stroke: #262626; stroke-width: 1.25; stroke-linejoin: miter; stroke-linecap: square"/>
   </g>
   <g id="patch_4">
    <path d="M 1067.04 254.74 
L 1067.04 40.32 
" style="fill: none; stroke: #262626; stroke-width: 1.25; stroke-linejoin: miter; stroke-linecap: square"/>
   </g>
   <g id="patch_5">
    <path d="M 36.41 254.74 
L 1067.04 254.74 
" style="fill: none; stroke: #262626; stroke-width: 1.25; stroke-linejoin: miter; stroke-linecap: square"/>
   </g>
   <g id="patch_6">
    <path d="M 36.41 40.32 
L 1067.04 40.32 
" style="fill: none; stroke: #262626; stroke-width: 1.25; stroke-linejoin: miter; stroke-linecap: square"/>
   </g>
  </g>
  <g id="text_11">
   <!-- Violin Plot of all Continuous Variables -->
   <g style="fill: #262626" transform="translate(400.766016 17.157656) scale(0.15 -0.15)">
    <defs>
     <path id="DejaVuSans-56" d="M 1831 0 
L 50 4666 
L 709 4666 
L 2188 738 
L 3669 4666 
L 4325 4666 
L 2547 0 
L 1831 0 
z
" transform="scale(0.015625)"/>
     <path id="DejaVuSans-69" d="M 603 3500 
L 1178 3500 
L 1178 0 
L 603 0 
L 603 3500 
z
M 603 4863 
L 1178 4863 
L 1178 4134 
L 603 4134 
L 603 4863 
z
" transform="scale(0.015625)"/>
     <path id="DejaVuSans-6f" d="M 1959 3097 
Q 1497 3097 1228 2736 
Q 959 2375 959 1747 
Q 959 1119 1226 758 
Q 1494 397 1959 397 
Q 2419 397 2687 759 
Q 2956 1122 2956 1747 
Q 2956 2369 2687 2733 
Q 2419 3097 1959 3097 
z
M 1959 3584 
Q 2709 3584 3137 3096 
Q 3566 2609 3566 1747 
Q 3566 888 3137 398 
Q 2709 -91 1959 -91 
Q 1206 -91 779 398 
Q 353 888 353 1747 
Q 353 2609 779 3096 
Q 1206 3584 1959 3584 
z
" transform="scale(0.015625)"/>
     <path id="DejaVuSans-6c" d="M 603 4863 
L 1178 4863 
L 1178 0 
L 603 0 
L 603 4863 
z
" transform="scale(0.015625)"/>
     <path id="DejaVuSans-6e" d="M 3513 2113 
L 3513 0 
L 2938 0 
L 2938 2094 
Q 2938 2591 2744 2837 
Q 2550 3084 2163 3084 
Q 1697 3084 1428 2787 
Q 1159 2491 1159 1978 
L 1159 0 
L 581 0 
L 581 3500 
L 1159 3500 
L 1159 2956 
Q 1366 3272 1645 3428 
Q 1925 3584 2291 3584 
Q 2894 3584 3203 3211 
Q 3513 2838 3513 2113 
z
" transform="scale(0.015625)"/>
     <path id="DejaVuSans-20" transform="scale(0.015625)"/>
     <path id="DejaVuSans-50" d="M 1259 4147 
L 1259 2394 
L 2053 2394 
Q 2494 2394 2734 2622 
Q 2975 2850 2975 3272 
Q 2975 3691 2734 3919 
Q 2494 4147 2053 4147 
L 1259 4147 
z
M 628 4666 
L 2053 4666 
Q 2838 4666 3239 4311 
Q 3641 3956 3641 3272 
Q 3641 2581 3239 2228 
Q 2838 1875 2053 1875 
L 1259 1875 
L 1259 0 
L 628 0 
L 628 4666 
z
" transform="scale(0.015625)"/>
     <path id="DejaVuSans-74" d="M 1172 4494 
L 1172 3500 
L 2356 3500 
L 2356 3053 
L 1172 3053 
L 1172 1153 
Q 1172 725 1289 603 
Q 1406 481 1766 481 
L 2356 481 
L 2356 0 
L 1766 0 
Q 1100 0 847 248 
Q 594 497 594 1153 
L 594 3053 
L 172 3053 
L 172 3500 
L 594 3500 
L 594 4494 
L 1172 4494 
z
" transform="scale(0.015625)"/>
     <path id="DejaVuSans-66" d="M 2375 4863 
L 2375 4384 
L 1825 4384 
Q 1516 4384 1395 4259 
Q 1275 4134 1275 3809 
L 1275 3500 
L 2222 3500 
L 2222 3053 
L 1275 3053 
L 1275 0 
L 697 0 
L 697 3053 
L 147 3053 
L 147 3500 
L 697 3500 
L 697 3744 
Q 697 4328 969 4595 
Q 1241 4863 1831 4863 
L 2375 4863 
z
" transform="scale(0.015625)"/>
     <path id="DejaVuSans-61" d="M 2194 1759 
Q 1497 1759 1228 1600 
Q 959 1441 959 1056 
Q 959 750 1161 570 
Q 1363 391 1709 391 
Q 2188 391 2477 730 
Q 2766 1069 2766 1631 
L 2766 1759 
L 2194 1759 
z
M 3341 1997 
L 3341 0 
L 2766 0 
L 2766 531 
Q 2569 213 2275 61 
Q 1981 -91 1556 -91 
Q 1019 -91 701 211 
Q 384 513 384 1019 
Q 384 1609 779 1909 
Q 1175 2209 1959 2209 
L 2766 2209 
L 2766 2266 
Q 2766 2663 2505 2880 
Q 2244 3097 1772 3097 
Q 1472 3097 1187 3025 
Q 903 2953 641 2809 
L 641 3341 
Q 956 3463 1253 3523 
Q 1550 3584 1831 3584 
Q 2591 3584 2966 3190 
Q 3341 2797 3341 1997 
z
" transform="scale(0.015625)"/>
     <path id="DejaVuSans-43" d="M 4122 4306 
L 4122 3641 
Q 3803 3938 3442 4084 
Q 3081 4231 2675 4231 
Q 1875 4231 1450 3742 
Q 1025 3253 1025 2328 
Q 1025 1406 1450 917 
Q 1875 428 2675 428 
Q 3081 428 3442 575 
Q 3803 722 4122 1019 
L 4122 359 
Q 3791 134 3420 21 
Q 3050 -91 2638 -91 
Q 1578 -91 968 557 
Q 359 1206 359 2328 
Q 359 3453 968 4101 
Q 1578 4750 2638 4750 
Q 3056 4750 3426 4639 
Q 3797 4528 4122 4306 
z
" transform="scale(0.015625)"/>
     <path id="DejaVuSans-75" d="M 544 1381 
L 544 3500 
L 1119 3500 
L 1119 1403 
Q 1119 906 1312 657 
Q 1506 409 1894 409 
Q 2359 409 2629 706 
Q 2900 1003 2900 1516 
L 2900 3500 
L 3475 3500 
L 3475 0 
L 2900 0 
L 2900 538 
Q 2691 219 2414 64 
Q 2138 -91 1772 -91 
Q 1169 -91 856 284 
Q 544 659 544 1381 
z
M 1991 3584 
L 1991 3584 
z
" transform="scale(0.015625)"/>
     <path id="DejaVuSans-73" d="M 2834 3397 
L 2834 2853 
Q 2591 2978 2328 3040 
Q 2066 3103 1784 3103 
Q 1356 3103 1142 2972 
Q 928 2841 928 2578 
Q 928 2378 1081 2264 
Q 1234 2150 1697 2047 
L 1894 2003 
Q 2506 1872 2764 1633 
Q 3022 1394 3022 966 
Q 3022 478 2636 193 
Q 2250 -91 1575 -91 
Q 1294 -91 989 -36 
Q 684 19 347 128 
L 347 722 
Q 666 556 975 473 
Q 1284 391 1588 391 
Q 1994 391 2212 530 
Q 2431 669 2431 922 
Q 2431 1156 2273 1281 
Q 2116 1406 1581 1522 
L 1381 1569 
Q 847 1681 609 1914 
Q 372 2147 372 2553 
Q 372 3047 722 3315 
Q 1072 3584 1716 3584 
Q 2034 3584 2315 3537 
Q 2597 3491 2834 3397 
z
" transform="scale(0.015625)"/>
     <path id="DejaVuSans-72" d="M 2631 2963 
Q 2534 3019 2420 3045 
Q 2306 3072 2169 3072 
Q 1681 3072 1420 2755 
Q 1159 2438 1159 1844 
L 1159 0 
L 581 0 
L 581 3500 
L 1159 3500 
L 1159 2956 
Q 1341 3275 1631 3429 
Q 1922 3584 2338 3584 
Q 2397 3584 2469 3576 
Q 2541 3569 2628 3553 
L 2631 2963 
z
" transform="scale(0.015625)"/>
     <path id="DejaVuSans-62" d="M 3116 1747 
Q 3116 2381 2855 2742 
Q 2594 3103 2138 3103 
Q 1681 3103 1420 2742 
Q 1159 2381 1159 1747 
Q 1159 1113 1420 752 
Q 1681 391 2138 391 
Q 2594 391 2855 752 
Q 3116 1113 3116 1747 
z
M 1159 2969 
Q 1341 3281 1617 3432 
Q 1894 3584 2278 3584 
Q 2916 3584 3314 3078 
Q 3713 2572 3713 1747 
Q 3713 922 3314 415 
Q 2916 -91 2278 -91 
Q 1894 -91 1617 61 
Q 1341 213 1159 525 
L 1159 0 
L 581 0 
L 581 4863 
L 1159 4863 
L 1159 2969 
z
" transform="scale(0.015625)"/>
     <path id="DejaVuSans-65" d="M 3597 1894 
L 3597 1613 
L 953 1613 
Q 991 1019 1311 708 
Q 1631 397 2203 397 
Q 2534 397 2845 478 
Q 3156 559 3463 722 
L 3463 178 
Q 3153 47 2828 -22 
Q 2503 -91 2169 -91 
Q 1331 -91 842 396 
Q 353 884 353 1716 
Q 353 2575 817 3079 
Q 1281 3584 2069 3584 
Q 2775 3584 3186 3129 
Q 3597 2675 3597 1894 
z
M 3022 2063 
Q 3016 2534 2758 2815 
Q 2500 3097 2075 3097 
Q 1594 3097 1305 2825 
Q 1016 2553 972 2059 
L 3022 2063 
z
" transform="scale(0.015625)"/>
    </defs>
    <use xlink:href="#DejaVuSans-56"/>
    <use xlink:href="#DejaVuSans-69" x="66.158203"/>
    <use xlink:href="#DejaVuSans-6f" x="93.941406"/>
    <use xlink:href="#DejaVuSans-6c" x="155.123047"/>
    <use xlink:href="#DejaVuSans-69" x="182.90625"/>
    <use xlink:href="#DejaVuSans-6e" x="210.689453"/>
    <use xlink:href="#DejaVuSans-20" x="274.068359"/>
    <use xlink:href="#DejaVuSans-50" x="305.855469"/>
    <use xlink:href="#DejaVuSans-6c" x="366.158203"/>
    <use xlink:href="#DejaVuSans-6f" x="393.941406"/>
    <use xlink:href="#DejaVuSans-74" x="455.123047"/>
    <use xlink:href="#DejaVuSans-20" x="494.332031"/>
    <use xlink:href="#DejaVuSans-6f" x="526.119141"/>
    <use xlink:href="#DejaVuSans-66" x="587.300781"/>
    <use xlink:href="#DejaVuSans-20" x="622.505859"/>
    <use xlink:href="#DejaVuSans-61" x="654.292969"/>
    <use xlink:href="#DejaVuSans-6c" x="715.572266"/>
    <use xlink:href="#DejaVuSans-6c" x="743.355469"/>
    <use xlink:href="#DejaVuSans-20" x="771.138672"/>
    <use xlink:href="#DejaVuSans-43" x="802.925781"/>
    <use xlink:href="#DejaVuSans-6f" x="872.75"/>
    <use xlink:href="#DejaVuSans-6e" x="933.931641"/>
    <use xlink:href="#DejaVuSans-74" x="997.310547"/>
    <use xlink:href="#DejaVuSans-69" x="1036.519531"/>
    <use xlink:href="#DejaVuSans-6e" x="1064.302734"/>
    <use xlink:href="#DejaVuSans-75" x="1127.681641"/>
    <use xlink:href="#DejaVuSans-6f" x="1191.060547"/>
    <use xlink:href="#DejaVuSans-75" x="1252.242188"/>
    <use xlink:href="#DejaVuSans-73" x="1315.621094"/>
    <use xlink:href="#DejaVuSans-20" x="1367.720703"/>
    <use xlink:href="#DejaVuSans-56" x="1399.507812"/>
    <use xlink:href="#DejaVuSans-61" x="1460.166016"/>
    <use xlink:href="#DejaVuSans-72" x="1521.445312"/>
    <use xlink:href="#DejaVuSans-69" x="1562.558594"/>
    <use xlink:href="#DejaVuSans-61" x="1590.341797"/>
    <use xlink:href="#DejaVuSans-62" x="1651.621094"/>
    <use xlink:href="#DejaVuSans-6c" x="1715.097656"/>
    <use xlink:href="#DejaVuSans-65" x="1742.880859"/>
    <use xlink:href="#DejaVuSans-73" x="1804.404297"/>
   </g>
  </g>
 </g>
 <defs>
  <clipPath id="pe79bdd6eaa">
   <rect x="36.41" y="40.32" width="1030.63" height="214.42"/>
  </clipPath>
 </defs>
</svg>
