<?xml version="1.0" encoding="utf-8" standalone="no"?>
<!DOCTYPE svg PUBLIC "-//W3C//DTD SVG 1.1//EN"
  "http://www.w3.org/Graphics/SVG/1.1/DTD/svg11.dtd">
<svg xmlns:xlink="http://www.w3.org/1999/xlink" width="1080pt" height="288pt" viewBox="0 0 1080 288" xmlns="http://www.w3.org/2000/svg" version="1.1">
 <metadata>
  <rdf:RDF xmlns:dc="http://purl.org/dc/elements/1.1/" xmlns:cc="http://creativecommons.org/ns#" xmlns:rdf="http://www.w3.org/1999/02/22-rdf-syntax-ns#">
   <cc:Work>
    <dc:type rdf:resource="http://purl.org/dc/dcmitype/StillImage"/>
    <dc:date>2025-07-23T23:08:10.617132</dc:date>
    <dc:format>image/svg+xml</dc:format>
    <dc:creator>
     <cc:Agent>
      <dc:title>Matplotlib v3.7.5, https://matplotlib.org/</dc:title>
     </cc:Agent>
    </dc:creator>
   </cc:Work>
  </rdf:RDF>
 </metadata>
 <defs>
  <style type="text/css">*{stroke-linejoin: round; stroke-linecap: butt}</style>
 </defs>
 <g id="figure_1">
  <g id="patch_1">
   <path d="M 0 288 
L 1080 288 
L 1080 0 
L 0 0 
z
" style="fill: #f0f0f0"/>
  </g>
  <g id="axes_1">
   <g id="patch_2">
    <path d="M 36.23 255.46 
L 1067.04 255.46 
L 1067.04 40.32 
L 36.23 40.32 
z
" style="fill: #eaeaf2"/>
   </g>
   <g id="matplotlib.axis_1">
    <g id="xtick_1">
     <g id="text_1">
      <!-- 納品数量 -->
      <g style="fill: #262626" transform="translate(117.311 273.199687) scale(0.11 -0.11)">
       <defs>
        <path id="IPAexGothic-7d0d" d="M 1253 3084 
Q 825 3691 391 4128 
L 672 4428 
Q 903 4184 928 4153 
Q 1297 4694 1547 5331 
L 1963 5119 
Q 1550 4353 1163 3859 
Q 1300 3691 1478 3419 
Q 1853 3981 2169 4563 
L 2547 4325 
Q 1850 3172 1319 2572 
L 1644 2591 
Q 2053 2613 2272 2631 
Q 2178 2878 2028 3156 
L 2378 3303 
Q 2681 2747 2891 2100 
L 2500 1919 
Q 2438 2166 2378 2328 
Q 2069 2269 1791 2234 
L 1791 -447 
L 1375 -447 
L 1375 2188 
Q 891 2128 434 2106 
L 288 2534 
Q 738 2544 863 2553 
Q 884 2584 1013 2756 
Q 1144 2934 1253 3084 
z
M 4200 4091 
L 4200 5313 
L 4641 5313 
L 4641 4091 
L 5950 4091 
L 5950 109 
Q 5950 -378 5419 -378 
Q 5128 -378 4716 -341 
L 4622 128 
Q 5016 63 5331 63 
Q 5516 63 5516 269 
L 5516 3681 
L 4634 3681 
Q 4625 3134 4550 2716 
Q 5088 2206 5491 1581 
L 5216 1197 
Q 4894 1747 4450 2284 
Q 4216 1497 3616 831 
L 3397 1147 
L 3397 -447 
L 2969 -447 
L 2969 4091 
L 4200 4091 
z
M 3397 3681 
L 3397 1247 
Q 3959 1866 4116 2716 
Q 4191 3125 4200 3681 
L 3397 3681 
z
M 359 206 
Q 594 841 659 1759 
L 1069 1709 
Q 1009 713 775 -13 
L 359 206 
z
M 2341 300 
Q 2216 1153 2009 1759 
L 2375 1869 
Q 2634 1219 2778 475 
L 2341 300 
z
" transform="scale(0.015625)"/>
        <path id="IPAexGothic-54c1" d="M 4781 4947 
L 4781 2872 
L 1613 2872 
L 1613 4947 
L 4781 4947 
z
M 2066 4556 
L 2066 3263 
L 4334 3263 
L 4334 4556 
L 2066 4556 
z
M 2841 2291 
L 2841 -325 
L 2400 -325 
L 2400 0 
L 1088 0 
L 1088 -384 
L 647 -384 
L 647 2291 
L 2841 2291 
z
M 1088 1900 
L 1088 397 
L 2400 397 
L 2400 1900 
L 1088 1900 
z
M 5747 2291 
L 5747 -384 
L 5306 -384 
L 5306 0 
L 3950 0 
L 3950 -384 
L 3509 -384 
L 3509 2291 
L 5747 2291 
z
M 3950 1900 
L 3950 397 
L 5306 397 
L 5306 1900 
L 3950 1900 
z
" transform="scale(0.015625)"/>
        <path id="IPAexGothic-6570" d="M 2847 1553 
Q 2741 1006 2425 534 
Q 2625 441 3091 203 
L 2809 -188 
Q 2541 0 2144 209 
Q 1569 -291 703 -500 
L 422 -125 
Q 1263 19 1747 406 
Q 1222 650 734 816 
Q 975 1172 1147 1503 
L 1172 1553 
L 359 1553 
L 359 1925 
L 1344 1925 
Q 1406 2066 1569 2475 
L 1691 2450 
L 1691 3372 
Q 1250 2738 550 2303 
L 275 2663 
Q 1019 3013 1528 3641 
L 378 3641 
L 378 4006 
L 1691 4006 
L 1691 5313 
L 2113 5313 
L 2113 4006 
L 3297 4006 
L 3297 3641 
L 2113 3641 
L 2113 3513 
Q 2659 3291 3175 2963 
L 2956 2584 
Q 2553 2922 2113 3159 
L 2113 2372 
L 1966 2372 
Q 1928 2288 1872 2141 
Q 1806 1975 1784 1925 
L 3378 1925 
L 3378 1553 
L 2847 1553 
z
M 2419 1553 
L 1613 1553 
Q 1478 1269 1313 997 
Q 1559 909 2047 703 
Q 2313 1047 2419 1553 
z
M 4363 1163 
Q 3953 1781 3738 2638 
Q 3575 2281 3428 2016 
L 3103 2406 
Q 3675 3444 3916 5291 
L 4363 5200 
Q 4284 4666 4197 4197 
L 6009 4197 
L 6009 3775 
L 5503 3775 
Q 5397 2275 4869 1191 
Q 5419 503 6144 75 
L 5822 -378 
Q 5188 106 4631 788 
Q 4113 34 3341 -463 
L 3031 -78 
Q 3888 406 4363 1163 
z
M 4588 1594 
Q 4938 2388 5059 3775 
L 4100 3775 
Q 4041 3519 3972 3288 
Q 3981 3250 3991 3194 
Q 4175 2256 4588 1594 
z
M 1003 4116 
Q 878 4544 638 4934 
L 1053 5094 
Q 1247 4788 1438 4269 
L 1003 4116 
z
M 2316 4269 
Q 2550 4688 2688 5131 
L 3128 4997 
Q 2966 4588 2675 4128 
L 2316 4269 
z
" transform="scale(0.015625)"/>
        <path id="IPAexGothic-91cf" d="M 5081 5159 
L 5081 3497 
L 1275 3497 
L 1275 5159 
L 5081 5159 
z
M 1716 4819 
L 1716 4475 
L 4647 4475 
L 4647 4819 
L 1716 4819 
z
M 1716 4175 
L 1716 3816 
L 4647 3816 
L 4647 4175 
L 1716 4175 
z
M 5238 2625 
L 5238 997 
L 3388 997 
L 3388 694 
L 5428 694 
L 5428 353 
L 3388 353 
L 3388 34 
L 6044 34 
L 6044 -331 
L 353 -331 
L 353 34 
L 2972 34 
L 2972 353 
L 969 353 
L 969 694 
L 2972 694 
L 2972 997 
L 1159 997 
L 1159 2625 
L 5238 2625 
z
M 1588 2325 
L 1588 1972 
L 2972 1972 
L 2972 2325 
L 1588 2325 
z
M 1588 1672 
L 1588 1303 
L 2972 1303 
L 2972 1672 
L 1588 1672 
z
M 4809 1303 
L 4809 1672 
L 3388 1672 
L 3388 1303 
L 4809 1303 
z
M 4809 1972 
L 4809 2325 
L 3388 2325 
L 3388 1972 
L 4809 1972 
z
M 384 3231 
L 6009 3231 
L 6009 2884 
L 384 2884 
L 384 3231 
z
" transform="scale(0.015625)"/>
       </defs>
       <use xlink:href="#IPAexGothic-7d0d"/>
       <use xlink:href="#IPAexGothic-54c1" x="100"/>
       <use xlink:href="#IPAexGothic-6570" x="200"/>
       <use xlink:href="#IPAexGothic-91cf" x="300"/>
      </g>
     </g>
    </g>
    <g id="xtick_2">
     <g id="text_2">
      <!-- 売上数量 -->
      <g style="fill: #262626" transform="translate(323.473 273.199687) scale(0.11 -0.11)">
       <defs>
        <path id="IPAexGothic-58f2" d="M 2938 4544 
L 2938 5313 
L 3419 5313 
L 3419 4544 
L 5781 4544 
L 5781 4147 
L 3419 4147 
L 3419 3559 
L 5306 3559 
L 5306 3163 
L 1088 3163 
L 1088 3559 
L 2938 3559 
L 2938 4147 
L 609 4147 
L 609 4544 
L 2938 4544 
z
M 5684 2706 
L 5684 1522 
L 5216 1522 
L 5216 2316 
L 1178 2316 
L 1178 1478 
L 709 1478 
L 709 2706 
L 5684 2706 
z
M 531 -84 
Q 1494 91 1894 556 
Q 2213 913 2222 1972 
L 2688 1972 
Q 2678 756 2216 225 
Q 1794 -256 819 -506 
L 531 -84 
z
M 3622 1972 
L 4091 1972 
L 4091 353 
Q 4091 191 4181 153 
Q 4313 100 4684 100 
Q 5169 100 5294 159 
Q 5503 256 5513 1006 
L 5972 863 
Q 5944 -22 5691 -206 
Q 5503 -347 4659 -347 
Q 3981 -347 3809 -250 
Q 3622 -144 3622 178 
L 3622 1972 
z
" transform="scale(0.015625)"/>
        <path id="IPAexGothic-4e0a" d="M 3259 3366 
L 5475 3366 
L 5475 2913 
L 3259 2913 
L 3259 556 
L 5991 556 
L 5991 103 
L 391 103 
L 391 556 
L 2772 556 
L 2772 5050 
L 3259 5050 
L 3259 3366 
z
" transform="scale(0.015625)"/>
       </defs>
       <use xlink:href="#IPAexGothic-58f2"/>
       <use xlink:href="#IPAexGothic-4e0a" x="100"/>
       <use xlink:href="#IPAexGothic-6570" x="200"/>
       <use xlink:href="#IPAexGothic-91cf" x="300"/>
      </g>
     </g>
    </g>
    <g id="xtick_3">
     <g id="text_3">
      <!-- 売上率 -->
      <g style="fill: #262626" transform="translate(535.135 273.199687) scale(0.11 -0.11)">
       <defs>
        <path id="IPAexGothic-7387" d="M 3022 2847 
Q 3338 3231 3684 3744 
L 4053 3525 
Q 3506 2766 2919 2181 
L 3266 2200 
Q 3575 2209 3825 2234 
Q 3728 2406 3575 2616 
L 3913 2772 
Q 4244 2350 4541 1766 
L 4156 1547 
Q 4084 1753 3997 1913 
L 3856 1894 
Q 3709 1875 3416 1850 
L 3416 1228 
L 6084 1228 
L 6084 819 
L 3416 819 
L 3416 -447 
L 2941 -447 
L 2941 819 
L 322 819 
L 322 1228 
L 2941 1228 
L 2941 1803 
L 2881 1797 
Q 2306 1759 2031 1747 
L 1903 2163 
Q 2319 2163 2416 2169 
Q 2522 2269 2772 2553 
Q 2347 3028 1916 3347 
L 2184 3653 
L 2447 3425 
Q 2681 3744 2869 4128 
L 547 4128 
L 547 4525 
L 2941 4525 
L 2941 5313 
L 3416 5313 
L 3416 4525 
L 5853 4525 
L 5853 4128 
L 2972 4128 
L 3278 3981 
Q 2991 3509 2697 3188 
Q 2850 3041 3022 2847 
z
M 1497 2822 
Q 1128 3263 691 3566 
L 1000 3847 
Q 1409 3588 1831 3156 
L 1497 2822 
z
M 4219 3078 
Q 4794 3478 5147 3897 
L 5538 3616 
Q 5078 3178 4494 2803 
L 4219 3078 
z
M 5556 1631 
Q 4997 2109 4372 2444 
L 4659 2741 
Q 5356 2381 5894 1984 
L 5556 1631 
z
M 538 1925 
Q 1306 2297 1881 2803 
L 2075 2456 
Q 1622 2034 813 1528 
L 538 1925 
z
" transform="scale(0.015625)"/>
       </defs>
       <use xlink:href="#IPAexGothic-58f2"/>
       <use xlink:href="#IPAexGothic-4e0a" x="100"/>
       <use xlink:href="#IPAexGothic-7387" x="200"/>
      </g>
     </g>
    </g>
    <g id="xtick_4">
     <g id="text_4">
      <!-- 単価 -->
      <g style="fill: #262626" transform="translate(746.797 273.199687) scale(0.11 -0.11)">
       <defs>
        <path id="IPAexGothic-5358" d="M 5403 1709 
L 3413 1709 
L 3413 1119 
L 6044 1119 
L 6044 709 
L 3413 709 
L 3413 -450 
L 2938 -450 
L 2938 709 
L 353 709 
L 353 1119 
L 2938 1119 
L 2938 1709 
L 994 1709 
L 994 3950 
L 3853 3950 
Q 4294 4534 4641 5238 
L 5128 5013 
Q 4778 4428 4378 3950 
L 5403 3950 
L 5403 1709 
z
M 4947 2081 
L 4947 2675 
L 3400 2675 
L 3400 2081 
L 4947 2081 
z
M 4947 3028 
L 4947 3578 
L 3400 3578 
L 3400 3028 
L 4947 3028 
z
M 1447 3578 
L 1447 3028 
L 2956 3028 
L 2956 3578 
L 1447 3578 
z
M 1447 2675 
L 1447 2081 
L 2956 2081 
L 2956 2675 
L 1447 2675 
z
M 3003 4063 
Q 2853 4531 2559 5050 
L 2997 5241 
Q 3272 4834 3494 4250 
L 3003 4063 
z
M 1653 4031 
Q 1453 4563 1191 4959 
L 1625 5153 
Q 1903 4800 2144 4219 
L 1653 4031 
z
" transform="scale(0.015625)"/>
        <path id="IPAexGothic-4fa1" d="M 3144 3397 
L 3144 4416 
L 1828 4416 
L 1828 4825 
L 6081 4825 
L 6081 4416 
L 4713 4416 
L 4713 3397 
L 5850 3397 
L 5850 -384 
L 5416 -384 
L 5416 0 
L 2463 0 
L 2463 -384 
L 2034 -384 
L 2034 3397 
L 3144 3397 
z
M 3572 3397 
L 4281 3397 
L 4281 4416 
L 3572 4416 
L 3572 3397 
z
M 3169 3013 
L 2463 3013 
L 2463 391 
L 3169 391 
L 3169 3013 
z
M 3572 3013 
L 3572 391 
L 4281 391 
L 4281 3013 
L 3572 3013 
z
M 4684 3013 
L 4684 391 
L 5416 391 
L 5416 3013 
L 4684 3013 
z
M 1394 3816 
L 1394 -447 
L 966 -447 
L 966 2797 
Q 756 2369 478 1972 
L 244 2369 
Q 950 3469 1375 5313 
L 1809 5203 
Q 1588 4344 1394 3816 
z
" transform="scale(0.015625)"/>
       </defs>
       <use xlink:href="#IPAexGothic-5358"/>
       <use xlink:href="#IPAexGothic-4fa1" x="100"/>
      </g>
     </g>
    </g>
    <g id="xtick_5">
     <g id="text_5">
      <!-- 売上金額 -->
      <g style="fill: #262626" transform="translate(941.959 273.199687) scale(0.11 -0.11)">
       <defs>
        <path id="IPAexGothic-91d1" d="M 3422 2969 
L 3422 2209 
L 5603 2209 
L 5603 1800 
L 3422 1800 
L 3422 191 
L 5922 191 
L 5922 -225 
L 481 -225 
L 481 191 
L 2947 191 
L 2947 1800 
L 803 1800 
L 803 2209 
L 2947 2209 
L 2947 2969 
L 1819 2969 
L 1819 3244 
Q 1263 2809 634 2466 
L 334 2853 
Q 2006 3647 2881 5234 
L 3441 5234 
Q 4503 3791 6109 3059 
L 5775 2613 
Q 5219 2934 4713 3294 
L 4713 2969 
L 3422 2969 
z
M 4609 3372 
Q 3781 3994 3172 4806 
Q 2741 4041 1972 3372 
L 4609 3372 
z
M 1838 300 
Q 1669 878 1344 1459 
L 1784 1644 
Q 2044 1228 2338 481 
L 1838 300 
z
M 4044 441 
Q 4403 1050 4622 1697 
L 5113 1509 
Q 4859 906 4488 288 
L 4044 441 
z
" transform="scale(0.015625)"/>
        <path id="IPAexGothic-984d" d="M 881 1409 
L 856 1391 
Q 750 1331 459 1178 
L 197 1513 
Q 1053 1856 1622 2425 
Q 1222 2709 1066 2809 
Q 847 2550 606 2350 
L 331 2638 
Q 1044 3216 1359 4141 
L 1738 4031 
Q 1650 3778 1578 3634 
L 2544 3634 
L 2756 3441 
Q 2513 2900 2188 2497 
Q 2800 2056 3222 1722 
L 2959 1372 
Q 2794 1519 2781 1525 
L 2781 -97 
L 1297 -97 
L 1297 -450 
L 881 -450 
L 881 1409 
z
M 1094 1538 
L 2769 1538 
Q 2403 1847 2019 2138 
L 1931 2203 
Q 1563 1834 1094 1538 
z
M 2366 1178 
L 1297 1178 
L 1297 275 
L 2366 275 
L 2366 1178 
z
M 1381 3256 
Q 1316 3153 1278 3097 
Q 1522 2944 1878 2706 
Q 2081 2966 2231 3256 
L 1381 3256 
z
M 4616 4025 
L 5741 4025 
L 5741 794 
L 3481 794 
L 3481 4025 
L 4225 4025 
Q 4322 4472 4353 4659 
L 3150 4659 
L 3150 5056 
L 6047 5056 
L 6047 4659 
L 4800 4659 
Q 4797 4638 4769 4538 
Q 4719 4309 4616 4025 
z
M 5331 3653 
L 3891 3653 
L 3891 3078 
L 5331 3078 
L 5331 3653 
z
M 3891 2713 
L 3891 2138 
L 5331 2138 
L 5331 2713 
L 3891 2713 
z
M 3891 1778 
L 3891 1166 
L 5331 1166 
L 5331 1778 
L 3891 1778 
z
M 2028 4544 
L 3153 4544 
L 3153 3550 
L 2744 3550 
L 2744 4178 
L 850 4178 
L 850 3447 
L 447 3447 
L 447 4544 
L 1600 4544 
L 1600 5313 
L 2028 5313 
L 2028 4544 
z
M 2975 -178 
Q 3666 178 4081 756 
L 4447 538 
Q 3956 -109 3300 -513 
L 2975 -178 
z
M 5797 -428 
Q 5275 163 4806 531 
L 5125 769 
Q 5644 403 6150 -122 
L 5797 -428 
z
" transform="scale(0.015625)"/>
       </defs>
       <use xlink:href="#IPAexGothic-58f2"/>
       <use xlink:href="#IPAexGothic-4e0a" x="100"/>
       <use xlink:href="#IPAexGothic-91d1" x="200"/>
       <use xlink:href="#IPAexGothic-984d" x="300"/>
      </g>
     </g>
    </g>
   </g>
   <g id="matplotlib.axis_2">
    <g id="ytick_1">
     <g id="line2d_1">
      <path d="M 36.23 243.58966 
L 1067.04 243.58966 
" clip-path="url(#pb14ce87420)" style="fill: none; stroke: #ffffff; stroke-linecap: round"/>
     </g>
     <g id="text_6">
      <!-- 0 -->
      <g style="fill: #262626" transform="translate(19.801719 247.709504) scale(0.11 -0.11)">
       <defs>
        <path id="IPAexGothic-30" d="M 2038 4725 
Q 2881 4725 3334 3944 
Q 3694 3325 3694 2344 
Q 3694 1372 3334 741 
Q 2888 -31 2016 -31 
Q 1147 -31 700 741 
Q 341 1372 341 2350 
Q 341 3713 1000 4334 
Q 1419 4725 2038 4725 
z
M 2016 4266 
Q 1516 4266 1228 3759 
Q 934 3247 934 2344 
Q 934 1456 1222 947 
Q 1513 447 2016 447 
Q 2619 447 2909 1153 
Q 3100 1622 3100 2375 
Q 3100 3256 2806 3759 
Q 2509 4266 2016 4266 
z
" transform="scale(0.015625)"/>
       </defs>
       <use xlink:href="#IPAexGothic-30"/>
      </g>
     </g>
    </g>
    <g id="ytick_2">
     <g id="line2d_2">
      <path d="M 36.23 197.526122 
L 1067.04 197.526122 
" clip-path="url(#pb14ce87420)" style="fill: none; stroke: #ffffff; stroke-linecap: round"/>
     </g>
     <g id="text_7">
      <!-- 20 -->
      <g style="fill: #262626" transform="translate(12.873437 201.645966) scale(0.11 -0.11)">
       <defs>
        <path id="IPAexGothic-32" d="M 3659 63 
L 447 63 
L 447 594 
Q 825 1475 1894 2203 
L 2072 2322 
Q 2619 2697 2791 2906 
Q 2988 3153 2988 3444 
Q 2988 3772 2756 4003 
Q 2500 4259 2084 4259 
Q 1250 4259 991 3328 
L 497 3506 
Q 853 4725 2116 4725 
Q 2806 4725 3216 4316 
Q 3575 3947 3575 3425 
Q 3575 3038 3344 2722 
Q 3131 2416 2366 1938 
L 2231 1856 
Q 1256 1253 978 569 
L 3659 569 
L 3659 63 
z
" transform="scale(0.015625)"/>
       </defs>
       <use xlink:href="#IPAexGothic-32"/>
       <use xlink:href="#IPAexGothic-30" x="62.988281"/>
      </g>
     </g>
    </g>
    <g id="ytick_3">
     <g id="line2d_3">
      <path d="M 36.23 151.462584 
L 1067.04 151.462584 
" clip-path="url(#pb14ce87420)" style="fill: none; stroke: #ffffff; stroke-linecap: round"/>
     </g>
     <g id="text_8">
      <!-- 40 -->
      <g style="fill: #262626" transform="translate(12.873437 155.582428) scale(0.11 -0.11)">
       <defs>
        <path id="IPAexGothic-34" d="M 3813 1159 
L 3059 1159 
L 3059 63 
L 2547 63 
L 2547 1159 
L 197 1159 
L 197 1672 
L 2456 4678 
L 3059 4678 
L 3059 1634 
L 3813 1634 
L 3813 1159 
z
M 2578 4109 
L 2559 4109 
Q 2278 3656 2003 3284 
L 759 1634 
L 2547 1634 
L 2547 3144 
Q 2547 3481 2578 4109 
z
" transform="scale(0.015625)"/>
       </defs>
       <use xlink:href="#IPAexGothic-34"/>
       <use xlink:href="#IPAexGothic-30" x="62.988281"/>
      </g>
     </g>
    </g>
    <g id="ytick_4">
     <g id="line2d_4">
      <path d="M 36.23 105.399046 
L 1067.04 105.399046 
" clip-path="url(#pb14ce87420)" style="fill: none; stroke: #ffffff; stroke-linecap: round"/>
     </g>
     <g id="text_9">
      <!-- 60 -->
      <g style="fill: #262626" transform="translate(12.873437 109.51889) scale(0.11 -0.11)">
       <defs>
        <path id="IPAexGothic-36" d="M 1056 2328 
Q 1509 2981 2234 2981 
Q 2906 2981 3316 2513 
Q 3675 2106 3675 1522 
Q 3675 884 3272 434 
Q 2853 -31 2178 -31 
Q 1375 -31 922 581 
Q 481 1178 481 2228 
Q 481 3425 1013 4109 
Q 1494 4725 2272 4725 
Q 3191 4725 3609 4025 
L 3150 3775 
Q 2894 4266 2300 4266 
Q 1119 4266 1031 2328 
L 1056 2328 
z
M 2141 2547 
Q 1684 2547 1384 2206 
Q 1116 1900 1116 1541 
Q 1116 1156 1353 844 
Q 1672 428 2159 428 
Q 2669 428 2941 844 
Q 3125 1128 3125 1503 
Q 3125 1944 2881 2228 
Q 2600 2547 2141 2547 
z
" transform="scale(0.015625)"/>
       </defs>
       <use xlink:href="#IPAexGothic-36"/>
       <use xlink:href="#IPAexGothic-30" x="62.988281"/>
      </g>
     </g>
    </g>
    <g id="ytick_5">
     <g id="line2d_5">
      <path d="M 36.23 59.335508 
L 1067.04 59.335508 
" clip-path="url(#pb14ce87420)" style="fill: none; stroke: #ffffff; stroke-linecap: round"/>
     </g>
     <g id="text_10">
      <!-- 80 -->
      <g style="fill: #262626" transform="translate(12.873437 63.455352) scale(0.11 -0.11)">
       <defs>
        <path id="IPAexGothic-38" d="M 2541 2425 
Q 3700 2031 3700 1197 
Q 3700 541 3100 197 
Q 2663 -56 2016 -56 
Q 1366 -56 928 197 
Q 347 531 347 1178 
Q 347 1988 1409 2381 
L 1409 2400 
Q 481 2734 481 3509 
Q 481 4100 981 4456 
Q 1406 4756 2019 4756 
Q 2703 4756 3131 4403 
Q 3553 4069 3553 3566 
Q 3553 2706 2541 2444 
L 2541 2425 
z
M 2022 2625 
Q 2997 2856 2997 3528 
Q 2997 3916 2675 4150 
Q 2413 4347 2016 4347 
Q 1606 4347 1331 4128 
Q 1050 3897 1050 3522 
Q 1050 3150 1350 2925 
Q 1494 2809 1722 2722 
Q 1984 2616 2022 2625 
z
M 1978 2209 
Q 922 1931 922 1216 
Q 922 775 1313 556 
Q 1606 391 2009 391 
Q 2575 391 2881 697 
Q 3106 922 3106 1250 
Q 3106 1594 2794 1850 
Q 2609 1994 2350 2100 
Q 2047 2222 1978 2209 
z
" transform="scale(0.015625)"/>
       </defs>
       <use xlink:href="#IPAexGothic-38"/>
       <use xlink:href="#IPAexGothic-30" x="62.988281"/>
      </g>
     </g>
    </g>
   </g>
   <g id="PolyCollection_1">
    <defs>
     <path id="me03386c05e" d="M 143.982613 -43.013131 
L 134.639387 -43.013131 
L 56.8462 -44.023452 
L 114.125569 -45.033772 
L 137.132658 -46.044093 
L 138.809119 -47.054414 
L 138.902454 -48.064734 
L 139.006521 -49.075055 
L 139.281171 -50.085376 
L 139.280445 -51.095696 
L 139.270326 -52.106017 
L 139.24113 -53.116338 
L 139.287553 -54.126658 
L 139.29046 -55.136979 
L 139.290407 -56.1473 
L 139.257882 -57.15762 
L 139.290657 -58.167941 
L 139.282895 -59.178262 
L 139.309335 -60.188582 
L 139.311 -61.198903 
L 139.311 -62.209224 
L 139.311 -63.219544 
L 139.311 -64.229865 
L 139.311 -65.240186 
L 139.311 -66.250506 
L 139.310982 -67.260827 
L 139.302319 -68.271148 
L 139.29735 -69.281468 
L 139.310306 -70.291789 
L 139.289339 -71.30211 
L 139.30848 -72.31243 
L 139.30581 -73.322751 
L 139.292705 -74.333071 
L 139.283574 -75.343392 
L 139.267666 -76.353713 
L 139.310164 -77.364033 
L 139.311 -78.374354 
L 139.311 -79.384675 
L 139.311 -80.394995 
L 139.311 -81.405316 
L 139.311 -82.415637 
L 139.311 -83.425957 
L 139.311 -84.436278 
L 139.311 -85.446599 
L 139.311 -86.456919 
L 139.311 -87.46724 
L 139.311 -88.477561 
L 139.311 -89.487881 
L 139.311 -90.498202 
L 139.311 -91.508523 
L 139.311 -92.518843 
L 139.311 -93.529164 
L 139.310694 -94.539485 
L 139.29152 -95.549805 
L 139.306858 -96.560126 
L 139.310997 -97.570447 
L 139.311 -98.580767 
L 139.311 -99.591088 
L 139.311 -100.601409 
L 139.311 -101.611729 
L 139.311 -102.62205 
L 139.311 -103.632371 
L 139.311 -104.642691 
L 139.311 -105.653012 
L 139.311 -106.663333 
L 139.311 -107.673653 
L 139.311 -108.683974 
L 139.311 -109.694295 
L 139.311 -110.704615 
L 139.311 -111.714936 
L 139.311 -112.725256 
L 139.309567 -113.735577 
L 139.288411 -114.745898 
L 139.309812 -115.756218 
L 139.311 -116.766539 
L 139.311 -117.77686 
L 139.311 -118.78718 
L 139.311 -119.797501 
L 139.311 -120.807822 
L 139.311 -121.818142 
L 139.311 -122.828463 
L 139.311 -123.838784 
L 139.311 -124.849104 
L 139.311 -125.859425 
L 139.311 -126.869746 
L 139.311 -127.880066 
L 139.311 -128.890387 
L 139.311 -129.900708 
L 139.311 -130.911028 
L 139.311 -131.921349 
L 139.311 -132.93167 
L 139.311 -133.94199 
L 139.311 -134.952311 
L 139.311 -135.962632 
L 139.311 -136.972952 
L 139.311 -137.983273 
L 139.311 -138.993594 
L 139.311 -140.003914 
L 139.31052 -141.014235 
L 139.290033 -142.024556 
L 139.307941 -143.034876 
L 139.314059 -143.034876 
L 139.314059 -143.034876 
L 139.331967 -142.024556 
L 139.31148 -141.014235 
L 139.311 -140.003914 
L 139.311 -138.993594 
L 139.311 -137.983273 
L 139.311 -136.972952 
L 139.311 -135.962632 
L 139.311 -134.952311 
L 139.311 -133.94199 
L 139.311 -132.93167 
L 139.311 -131.921349 
L 139.311 -130.911028 
L 139.311 -129.900708 
L 139.311 -128.890387 
L 139.311 -127.880066 
L 139.311 -126.869746 
L 139.311 -125.859425 
L 139.311 -124.849104 
L 139.311 -123.838784 
L 139.311 -122.828463 
L 139.311 -121.818142 
L 139.311 -120.807822 
L 139.311 -119.797501 
L 139.311 -118.78718 
L 139.311 -117.77686 
L 139.311 -116.766539 
L 139.312188 -115.756218 
L 139.333589 -114.745898 
L 139.312433 -113.735577 
L 139.311 -112.725256 
L 139.311 -111.714936 
L 139.311 -110.704615 
L 139.311 -109.694295 
L 139.311 -108.683974 
L 139.311 -107.673653 
L 139.311 -106.663333 
L 139.311 -105.653012 
L 139.311 -104.642691 
L 139.311 -103.632371 
L 139.311 -102.62205 
L 139.311 -101.611729 
L 139.311 -100.601409 
L 139.311 -99.591088 
L 139.311 -98.580767 
L 139.311003 -97.570447 
L 139.315142 -96.560126 
L 139.33048 -95.549805 
L 139.311306 -94.539485 
L 139.311 -93.529164 
L 139.311 -92.518843 
L 139.311 -91.508523 
L 139.311 -90.498202 
L 139.311 -89.487881 
L 139.311 -88.477561 
L 139.311 -87.46724 
L 139.311 -86.456919 
L 139.311 -85.446599 
L 139.311 -84.436278 
L 139.311 -83.425957 
L 139.311 -82.415637 
L 139.311 -81.405316 
L 139.311 -80.394995 
L 139.311 -79.384675 
L 139.311 -78.374354 
L 139.311836 -77.364033 
L 139.354334 -76.353713 
L 139.338426 -75.343392 
L 139.329295 -74.333071 
L 139.31619 -73.322751 
L 139.31352 -72.31243 
L 139.332661 -71.30211 
L 139.311694 -70.291789 
L 139.32465 -69.281468 
L 139.319681 -68.271148 
L 139.311018 -67.260827 
L 139.311 -66.250506 
L 139.311 -65.240186 
L 139.311 -64.229865 
L 139.311 -63.219544 
L 139.311 -62.209224 
L 139.311 -61.198903 
L 139.312665 -60.188582 
L 139.339105 -59.178262 
L 139.331343 -58.167941 
L 139.364118 -57.15762 
L 139.331593 -56.1473 
L 139.33154 -55.136979 
L 139.334447 -54.126658 
L 139.38087 -53.116338 
L 139.351674 -52.106017 
L 139.341555 -51.095696 
L 139.340829 -50.085376 
L 139.615479 -49.075055 
L 139.719546 -48.064734 
L 139.812881 -47.054414 
L 141.489342 -46.044093 
L 164.496431 -45.033772 
L 221.7758 -44.023452 
L 143.982613 -43.013131 
z
" style="stroke: #484848; stroke-width: 3"/>
    </defs>
    <g clip-path="url(#pb14ce87420)">
     <use xlink:href="#me03386c05e" x="0" y="288" style="fill: #cb3335; stroke: #484848; stroke-width: 3"/>
    </g>
   </g>
   <g id="PolyCollection_2">
    <defs>
     <path id="m3e38bdd872" d="M 352.868323 -43.195767 
L 338.077677 -43.195767 
L 263.0082 -43.936965 
L 303.909693 -44.678163 
L 337.29461 -45.419362 
L 342.682832 -46.16056 
L 344.534365 -46.901758 
L 344.997062 -47.642957 
L 345.164654 -48.384155 
L 345.187123 -49.125353 
L 345.274864 -49.866551 
L 345.357111 -50.60775 
L 345.387983 -51.348948 
L 345.430639 -52.090146 
L 345.46763 -52.831345 
L 345.453323 -53.572543 
L 345.420558 -54.313741 
L 345.437679 -55.05494 
L 345.444653 -55.796138 
L 345.450777 -56.537336 
L 345.472039 -57.278535 
L 345.472209 -58.019733 
L 345.454995 -58.760931 
L 345.458247 -59.50213 
L 345.459898 -60.243328 
L 345.470927 -60.984526 
L 345.472993 -61.725725 
L 345.473 -62.466923 
L 345.473 -63.208121 
L 345.473 -63.949319 
L 345.473 -64.690518 
L 345.473 -65.431716 
L 345.473 -66.172914 
L 345.473 -66.914113 
L 345.473 -67.655311 
L 345.473 -68.396509 
L 345.473 -69.137708 
L 345.473 -69.878906 
L 345.473 -70.620104 
L 345.473 -71.361303 
L 345.473 -72.102501 
L 345.473 -72.843699 
L 345.473 -73.584898 
L 345.473 -74.326096 
L 345.473 -75.067294 
L 345.473 -75.808493 
L 345.473 -76.549691 
L 345.473 -77.290889 
L 345.47291 -78.032087 
L 345.466495 -78.773286 
L 345.463818 -79.514484 
L 345.472748 -80.255682 
L 345.473 -80.996881 
L 345.473 -81.738079 
L 345.473 -82.479277 
L 345.473 -83.220476 
L 345.473 -83.961674 
L 345.473 -84.702872 
L 345.472999 -85.444071 
L 345.472035 -86.185269 
L 345.460692 -86.926467 
L 345.469944 -87.667666 
L 345.472985 -88.408864 
L 345.473 -89.150062 
L 345.473 -89.891261 
L 345.473 -90.632459 
L 345.473 -91.373657 
L 345.473 -92.114856 
L 345.473 -92.856054 
L 345.473 -93.597252 
L 345.473 -94.33845 
L 345.473 -95.079649 
L 345.473 -95.820847 
L 345.472968 -96.562045 
L 345.46804 -97.303244 
L 345.443134 -98.044442 
L 345.459674 -98.78564 
L 345.472784 -99.526839 
L 345.473 -100.268037 
L 345.473 -101.009235 
L 345.473 -101.750434 
L 345.473 -102.491632 
L 345.472828 -103.23283 
L 345.464845 -103.974029 
L 345.465463 -104.715227 
L 345.472691 -105.456425 
L 345.464816 -106.197624 
L 345.465249 -106.938822 
L 345.460634 -107.68002 
L 345.454095 -108.421218 
L 345.472053 -109.162417 
L 345.472905 -109.903615 
L 345.463819 -110.644813 
L 345.451172 -111.386012 
L 345.471704 -112.12721 
L 345.472998 -112.868408 
L 345.473 -113.609607 
L 345.472995 -114.350805 
L 345.471154 -115.092003 
L 345.460164 -115.833202 
L 345.471263 -116.5744 
L 345.474737 -116.5744 
L 345.474737 -116.5744 
L 345.485836 -115.833202 
L 345.474846 -115.092003 
L 345.473005 -114.350805 
L 345.473 -113.609607 
L 345.473002 -112.868408 
L 345.474296 -112.12721 
L 345.494828 -111.386012 
L 345.482181 -110.644813 
L 345.473095 -109.903615 
L 345.473947 -109.162417 
L 345.491905 -108.421218 
L 345.485366 -107.68002 
L 345.480751 -106.938822 
L 345.481184 -106.197624 
L 345.473309 -105.456425 
L 345.480537 -104.715227 
L 345.481155 -103.974029 
L 345.473172 -103.23283 
L 345.473 -102.491632 
L 345.473 -101.750434 
L 345.473 -101.009235 
L 345.473 -100.268037 
L 345.473216 -99.526839 
L 345.486326 -98.78564 
L 345.502866 -98.044442 
L 345.47796 -97.303244 
L 345.473032 -96.562045 
L 345.473 -95.820847 
L 345.473 -95.079649 
L 345.473 -94.33845 
L 345.473 -93.597252 
L 345.473 -92.856054 
L 345.473 -92.114856 
L 345.473 -91.373657 
L 345.473 -90.632459 
L 345.473 -89.891261 
L 345.473 -89.150062 
L 345.473015 -88.408864 
L 345.476056 -87.667666 
L 345.485308 -86.926467 
L 345.473965 -86.185269 
L 345.473001 -85.444071 
L 345.473 -84.702872 
L 345.473 -83.961674 
L 345.473 -83.220476 
L 345.473 -82.479277 
L 345.473 -81.738079 
L 345.473 -80.996881 
L 345.473252 -80.255682 
L 345.482182 -79.514484 
L 345.479505 -78.773286 
L 345.47309 -78.032087 
L 345.473 -77.290889 
L 345.473 -76.549691 
L 345.473 -75.808493 
L 345.473 -75.067294 
L 345.473 -74.326096 
L 345.473 -73.584898 
L 345.473 -72.843699 
L 345.473 -72.102501 
L 345.473 -71.361303 
L 345.473 -70.620104 
L 345.473 -69.878906 
L 345.473 -69.137708 
L 345.473 -68.396509 
L 345.473 -67.655311 
L 345.473 -66.914113 
L 345.473 -66.172914 
L 345.473 -65.431716 
L 345.473 -64.690518 
L 345.473 -63.949319 
L 345.473 -63.208121 
L 345.473 -62.466923 
L 345.473007 -61.725725 
L 345.475073 -60.984526 
L 345.486102 -60.243328 
L 345.487753 -59.50213 
L 345.491005 -58.760931 
L 345.473791 -58.019733 
L 345.473961 -57.278535 
L 345.495223 -56.537336 
L 345.501347 -55.796138 
L 345.508321 -55.05494 
L 345.525442 -54.313741 
L 345.492677 -53.572543 
L 345.47837 -52.831345 
L 345.515361 -52.090146 
L 345.558017 -51.348948 
L 345.588889 -50.60775 
L 345.671136 -49.866551 
L 345.758877 -49.125353 
L 345.781346 -48.384155 
L 345.948938 -47.642957 
L 346.411635 -46.901758 
L 348.263168 -46.16056 
L 353.65139 -45.419362 
L 387.036307 -44.678163 
L 427.9378 -43.936965 
L 352.868323 -43.195767 
z
" style="stroke: #484848; stroke-width: 3"/>
    </defs>
    <g clip-path="url(#pb14ce87420)">
     <use xlink:href="#m3e38bdd872" x="0" y="288" style="fill: #477ca8; stroke: #484848; stroke-width: 3"/>
    </g>
   </g>
   <g id="PolyCollection_3">
    <defs>
     <path id="m10cec66a23" d="M 563.092561 -42.319091 
L 540.177439 -42.319091 
L 511.657353 -42.601329 
L 474.643127 -42.883567 
L 469.1702 -43.165805 
L 500.99633 -43.448043 
L 531.099127 -43.730281 
L 542.445821 -44.012519 
L 544.255108 -44.294757 
L 544.084921 -44.576995 
L 543.926035 -44.859233 
L 543.64694 -45.141471 
L 543.486885 -45.423709 
L 544.156603 -45.705947 
L 544.708921 -45.988185 
L 544.476071 -46.270423 
L 544.347218 -46.552661 
L 544.725036 -46.834899 
L 545.037309 -47.117137 
L 544.311263 -47.399375 
L 542.797781 -47.681613 
L 542.932214 -47.963851 
L 545.281326 -48.246089 
L 547.408667 -48.528327 
L 548.317473 -48.810566 
L 548.735443 -49.092804 
L 549.160659 -49.375042 
L 549.568354 -49.65728 
L 549.681237 -49.939518 
L 549.658642 -50.221756 
L 550.02938 -50.503994 
L 550.578231 -50.786232 
L 550.876857 -51.06847 
L 551.034463 -51.350708 
L 551.171866 -51.632946 
L 551.229568 -51.915184 
L 551.088892 -52.197422 
L 550.788395 -52.47966 
L 550.72063 -52.761898 
L 551.016812 -53.044136 
L 551.290687 -53.326374 
L 551.37073 -53.608612 
L 551.392199 -53.89085 
L 551.430362 -54.173088 
L 551.468212 -54.455326 
L 551.469966 -54.737564 
L 551.454722 -55.019802 
L 551.486652 -55.30204 
L 551.543352 -55.584278 
L 551.56518 -55.866516 
L 551.56471 -56.148754 
L 551.575693 -56.430992 
L 551.590192 -56.71323 
L 551.57157 -56.995468 
L 551.520179 -57.277706 
L 551.502734 -57.559944 
L 551.54992 -57.842182 
L 551.604853 -58.12442 
L 551.629118 -58.406658 
L 551.634262 -58.688896 
L 551.633916 -58.971134 
L 551.629435 -59.253373 
L 551.618735 -59.535611 
L 551.608845 -59.817849 
L 551.611868 -60.100087 
L 551.623748 -60.382325 
L 551.631989 -60.664563 
L 551.634531 -60.946801 
L 551.634625 -61.229039 
L 551.632525 -61.511277 
L 551.625073 -61.793515 
L 551.613091 -62.075753 
L 551.608405 -62.357991 
L 551.617244 -62.640229 
L 551.628479 -62.922467 
L 551.633662 -63.204705 
L 551.6346 -63.486943 
L 551.633328 -63.769181 
L 551.629011 -64.051419 
L 551.62314 -64.333657 
L 551.62208 -64.615895 
L 551.627259 -64.898133 
L 551.632449 -65.180371 
L 551.634537 -65.462609 
L 551.634943 -65.744847 
L 551.63485 -66.027085 
L 551.633882 -66.309323 
L 551.630353 -66.591561 
L 551.624373 -66.873799 
L 551.621633 -67.156037 
L 551.625753 -67.438275 
L 551.631482 -67.720513 
L 551.634262 -68.002751 
L 551.634876 -68.284989 
L 551.634582 -68.567227 
L 551.632646 -68.849465 
L 551.627613 -69.131703 
L 551.622247 -69.413941 
L 551.622891 -69.69618 
L 551.628676 -69.978418 
L 551.633184 -70.260656 
L 551.636816 -70.260656 
L 551.636816 -70.260656 
L 551.641324 -69.978418 
L 551.647109 -69.69618 
L 551.647753 -69.413941 
L 551.642387 -69.131703 
L 551.637354 -68.849465 
L 551.635418 -68.567227 
L 551.635124 -68.284989 
L 551.635738 -68.002751 
L 551.638518 -67.720513 
L 551.644247 -67.438275 
L 551.648367 -67.156037 
L 551.645627 -66.873799 
L 551.639647 -66.591561 
L 551.636118 -66.309323 
L 551.63515 -66.027085 
L 551.635057 -65.744847 
L 551.635463 -65.462609 
L 551.637551 -65.180371 
L 551.642741 -64.898133 
L 551.64792 -64.615895 
L 551.64686 -64.333657 
L 551.640989 -64.051419 
L 551.636672 -63.769181 
L 551.6354 -63.486943 
L 551.636338 -63.204705 
L 551.641521 -62.922467 
L 551.652756 -62.640229 
L 551.661595 -62.357991 
L 551.656909 -62.075753 
L 551.644927 -61.793515 
L 551.637475 -61.511277 
L 551.635375 -61.229039 
L 551.635469 -60.946801 
L 551.638011 -60.664563 
L 551.646252 -60.382325 
L 551.658132 -60.100087 
L 551.661155 -59.817849 
L 551.651265 -59.535611 
L 551.640565 -59.253373 
L 551.636084 -58.971134 
L 551.635738 -58.688896 
L 551.640882 -58.406658 
L 551.665147 -58.12442 
L 551.72008 -57.842182 
L 551.767266 -57.559944 
L 551.749821 -57.277706 
L 551.69843 -56.995468 
L 551.679808 -56.71323 
L 551.694307 -56.430992 
L 551.70529 -56.148754 
L 551.70482 -55.866516 
L 551.726648 -55.584278 
L 551.783348 -55.30204 
L 551.815278 -55.019802 
L 551.800034 -54.737564 
L 551.801788 -54.455326 
L 551.839638 -54.173088 
L 551.877801 -53.89085 
L 551.89927 -53.608612 
L 551.979313 -53.326374 
L 552.253188 -53.044136 
L 552.54937 -52.761898 
L 552.481605 -52.47966 
L 552.181108 -52.197422 
L 552.040432 -51.915184 
L 552.098134 -51.632946 
L 552.235537 -51.350708 
L 552.393143 -51.06847 
L 552.691769 -50.786232 
L 553.24062 -50.503994 
L 553.611358 -50.221756 
L 553.588763 -49.939518 
L 553.701646 -49.65728 
L 554.109341 -49.375042 
L 554.534557 -49.092804 
L 554.952527 -48.810566 
L 555.861333 -48.528327 
L 557.988674 -48.246089 
L 560.337786 -47.963851 
L 560.472219 -47.681613 
L 558.958737 -47.399375 
L 558.232691 -47.117137 
L 558.544964 -46.834899 
L 558.922782 -46.552661 
L 558.793929 -46.270423 
L 558.561079 -45.988185 
L 559.113397 -45.705947 
L 559.783115 -45.423709 
L 559.62306 -45.141471 
L 559.343965 -44.859233 
L 559.185079 -44.576995 
L 559.014892 -44.294757 
L 560.824179 -44.012519 
L 572.170873 -43.730281 
L 602.27367 -43.448043 
L 634.0998 -43.165805 
L 628.626873 -42.883567 
L 591.612647 -42.601329 
L 563.092561 -42.319091 
z
" style="stroke: #484848; stroke-width: 3"/>
    </defs>
    <g clip-path="url(#pb14ce87420)">
     <use xlink:href="#m10cec66a23" x="0" y="288" style="fill: #59a257; stroke: #484848; stroke-width: 3"/>
    </g>
   </g>
   <g id="PolyCollection_4">
    <defs>
     <path id="m22a51d2cec" d="M 762.801405 -42.753337 
L 752.792595 -42.753337 
L 675.3322 -44.724524 
L 757.026005 -46.695712 
L 757.732651 -48.666899 
L 757.628312 -50.638087 
L 757.735571 -52.609275 
L 757.745347 -54.580462 
L 757.77809 -56.55165 
L 757.796422 -58.522837 
L 757.796997 -60.494025 
L 757.671821 -62.465213 
L 757.741009 -64.4364 
L 757.797 -66.407588 
L 757.797 -68.378775 
L 757.797 -70.349963 
L 757.797 -72.321151 
L 757.797 -74.292338 
L 757.797 -76.263526 
L 757.797 -78.234713 
L 757.797 -80.205901 
L 757.71135 -82.177089 
L 757.768253 -84.148276 
L 757.797 -86.119464 
L 757.797 -88.090651 
L 757.797 -90.061839 
L 757.797 -92.033027 
L 757.797 -94.004214 
L 757.797 -95.975402 
L 757.797 -97.946589 
L 757.797 -99.917777 
L 757.797 -101.888965 
L 757.797 -103.860152 
L 757.797 -105.83134 
L 757.797 -107.802527 
L 757.797 -109.773715 
L 757.797 -111.744903 
L 757.797 -113.71609 
L 757.797 -115.687278 
L 757.797 -117.658465 
L 757.797 -119.629653 
L 757.797 -121.600841 
L 757.797 -123.572028 
L 757.797 -125.543216 
L 757.797 -127.514403 
L 757.797 -129.485591 
L 757.797 -131.456779 
L 757.797 -133.427966 
L 757.797 -135.399154 
L 757.797 -137.370341 
L 757.797 -139.341529 
L 757.797 -141.312717 
L 757.797 -143.283904 
L 757.797 -145.255092 
L 757.797 -147.226279 
L 757.797 -149.197467 
L 757.797 -151.168655 
L 757.797 -153.139842 
L 757.797 -155.11103 
L 757.797 -157.082217 
L 757.797 -159.053405 
L 757.797 -161.024593 
L 757.797 -162.99578 
L 757.797 -164.966968 
L 757.797 -166.938155 
L 757.797 -168.909343 
L 757.797 -170.880531 
L 757.797 -172.851718 
L 757.797 -174.822906 
L 757.797 -176.794093 
L 757.797 -178.765281 
L 757.797 -180.736469 
L 757.797 -182.707656 
L 757.797 -184.678844 
L 757.797 -186.650031 
L 757.797 -188.621219 
L 757.797 -190.592407 
L 757.797 -192.563594 
L 757.797 -194.534782 
L 757.797 -196.505969 
L 757.797 -198.477157 
L 757.797 -200.448345 
L 757.797 -202.419532 
L 757.797 -204.39072 
L 757.797 -206.361907 
L 757.797 -208.333095 
L 757.797 -210.304283 
L 757.797 -212.27547 
L 757.797 -214.246658 
L 757.797 -216.217845 
L 757.797 -218.189033 
L 757.797 -220.160221 
L 757.797 -222.131408 
L 757.797 -224.102596 
L 757.797 -226.073783 
L 757.797 -228.044971 
L 757.797 -230.016159 
L 757.797 -231.987346 
L 757.797 -233.958534 
L 757.796911 -235.929721 
L 757.793108 -237.900909 
L 757.800892 -237.900909 
L 757.800892 -237.900909 
L 757.797089 -235.929721 
L 757.797 -233.958534 
L 757.797 -231.987346 
L 757.797 -230.016159 
L 757.797 -228.044971 
L 757.797 -226.073783 
L 757.797 -224.102596 
L 757.797 -222.131408 
L 757.797 -220.160221 
L 757.797 -218.189033 
L 757.797 -216.217845 
L 757.797 -214.246658 
L 757.797 -212.27547 
L 757.797 -210.304283 
L 757.797 -208.333095 
L 757.797 -206.361907 
L 757.797 -204.39072 
L 757.797 -202.419532 
L 757.797 -200.448345 
L 757.797 -198.477157 
L 757.797 -196.505969 
L 757.797 -194.534782 
L 757.797 -192.563594 
L 757.797 -190.592407 
L 757.797 -188.621219 
L 757.797 -186.650031 
L 757.797 -184.678844 
L 757.797 -182.707656 
L 757.797 -180.736469 
L 757.797 -178.765281 
L 757.797 -176.794093 
L 757.797 -174.822906 
L 757.797 -172.851718 
L 757.797 -170.880531 
L 757.797 -168.909343 
L 757.797 -166.938155 
L 757.797 -164.966968 
L 757.797 -162.99578 
L 757.797 -161.024593 
L 757.797 -159.053405 
L 757.797 -157.082217 
L 757.797 -155.11103 
L 757.797 -153.139842 
L 757.797 -151.168655 
L 757.797 -149.197467 
L 757.797 -147.226279 
L 757.797 -145.255092 
L 757.797 -143.283904 
L 757.797 -141.312717 
L 757.797 -139.341529 
L 757.797 -137.370341 
L 757.797 -135.399154 
L 757.797 -133.427966 
L 757.797 -131.456779 
L 757.797 -129.485591 
L 757.797 -127.514403 
L 757.797 -125.543216 
L 757.797 -123.572028 
L 757.797 -121.600841 
L 757.797 -119.629653 
L 757.797 -117.658465 
L 757.797 -115.687278 
L 757.797 -113.71609 
L 757.797 -111.744903 
L 757.797 -109.773715 
L 757.797 -107.802527 
L 757.797 -105.83134 
L 757.797 -103.860152 
L 757.797 -101.888965 
L 757.797 -99.917777 
L 757.797 -97.946589 
L 757.797 -95.975402 
L 757.797 -94.004214 
L 757.797 -92.033027 
L 757.797 -90.061839 
L 757.797 -88.090651 
L 757.797 -86.119464 
L 757.825747 -84.148276 
L 757.88265 -82.177089 
L 757.797 -80.205901 
L 757.797 -78.234713 
L 757.797 -76.263526 
L 757.797 -74.292338 
L 757.797 -72.321151 
L 757.797 -70.349963 
L 757.797 -68.378775 
L 757.797 -66.407588 
L 757.852991 -64.4364 
L 757.922179 -62.465213 
L 757.797003 -60.494025 
L 757.797578 -58.522837 
L 757.81591 -56.55165 
L 757.848653 -54.580462 
L 757.858429 -52.609275 
L 757.965688 -50.638087 
L 757.861349 -48.666899 
L 758.567995 -46.695712 
L 840.2618 -44.724524 
L 762.801405 -42.753337 
z
" style="stroke: #484848; stroke-width: 3"/>
    </defs>
    <g clip-path="url(#pb14ce87420)">
     <use xlink:href="#m22a51d2cec" x="0" y="288" style="fill: #905998; stroke: #484848; stroke-width: 3"/>
    </g>
   </g>
   <g id="PolyCollection_5">
    <defs>
     <path id="mec92d712e3" d="M 968.142652 -43.17395 
L 959.775348 -43.17395 
L 881.4942 -44.035398 
L 936.170094 -44.896845 
L 959.62578 -45.758293 
L 962.882463 -46.61974 
L 963.690517 -47.481188 
L 963.840869 -48.342635 
L 963.856124 -49.204083 
L 963.918359 -50.06553 
L 963.942326 -50.926978 
L 963.93918 -51.788425 
L 963.938871 -52.649873 
L 963.957853 -53.51132 
L 963.959 -54.372768 
L 963.959 -55.234215 
L 963.959 -56.095663 
L 963.959 -56.95711 
L 963.959 -57.818558 
L 963.959 -58.680005 
L 963.959 -59.541453 
L 963.959 -60.4029 
L 963.959 -61.264348 
L 963.959 -62.125795 
L 963.959 -62.987243 
L 963.958313 -63.848691 
L 963.946832 -64.710138 
L 963.957946 -65.571586 
L 963.959 -66.433033 
L 963.959 -67.294481 
L 963.959 -68.155928 
L 963.959 -69.017376 
L 963.959 -69.878823 
L 963.959 -70.740271 
L 963.959 -71.601718 
L 963.959 -72.463166 
L 963.959 -73.324613 
L 963.959 -74.186061 
L 963.959 -75.047508 
L 963.959 -75.908956 
L 963.959 -76.770403 
L 963.959 -77.631851 
L 963.958948 -78.493298 
L 963.951592 -79.354746 
L 963.953792 -80.216193 
L 963.958981 -81.077641 
L 963.957429 -81.939088 
L 963.947253 -82.800536 
L 963.95857 -83.661983 
L 963.959 -84.523431 
L 963.959 -85.384878 
L 963.959 -86.246326 
L 963.959 -87.107773 
L 963.959 -87.969221 
L 963.959 -88.830668 
L 963.959 -89.692116 
L 963.959 -90.553563 
L 963.959 -91.415011 
L 963.959 -92.276458 
L 963.959 -93.137906 
L 963.958829 -93.999353 
L 963.948822 -94.860801 
L 963.947585 -95.722248 
L 963.942361 -96.583696 
L 963.957617 -97.445143 
L 963.958999 -98.306591 
L 963.959 -99.168038 
L 963.958586 -100.029486 
L 963.947301 -100.890933 
L 963.957383 -101.752381 
L 963.958999 -102.613829 
L 963.959 -103.475276 
L 963.959 -104.336724 
L 963.959 -105.198171 
L 963.959 -106.059619 
L 963.959 -106.921066 
L 963.959 -107.782514 
L 963.958998 -108.643961 
L 963.957029 -109.505409 
L 963.941932 -110.366856 
L 963.941422 -111.228304 
L 963.956127 -112.089751 
L 963.958996 -112.951199 
L 963.959 -113.812646 
L 963.957995 -114.674094 
L 963.946806 -115.535541 
L 963.955398 -116.396989 
L 963.94883 -117.258436 
L 963.958824 -118.119884 
L 963.959 -118.981331 
L 963.959 -119.842779 
L 963.959 -120.704226 
L 963.959 -121.565674 
L 963.959 -122.427121 
L 963.959 -123.288569 
L 963.959 -124.150016 
L 963.959 -125.011464 
L 963.959 -125.872911 
L 963.958598 -126.734359 
L 963.947341 -127.595806 
L 963.957346 -128.457254 
L 963.960654 -128.457254 
L 963.960654 -128.457254 
L 963.970659 -127.595806 
L 963.959402 -126.734359 
L 963.959 -125.872911 
L 963.959 -125.011464 
L 963.959 -124.150016 
L 963.959 -123.288569 
L 963.959 -122.427121 
L 963.959 -121.565674 
L 963.959 -120.704226 
L 963.959 -119.842779 
L 963.959 -118.981331 
L 963.959176 -118.119884 
L 963.96917 -117.258436 
L 963.962602 -116.396989 
L 963.971194 -115.535541 
L 963.960005 -114.674094 
L 963.959 -113.812646 
L 963.959004 -112.951199 
L 963.961873 -112.089751 
L 963.976578 -111.228304 
L 963.976068 -110.366856 
L 963.960971 -109.505409 
L 963.959002 -108.643961 
L 963.959 -107.782514 
L 963.959 -106.921066 
L 963.959 -106.059619 
L 963.959 -105.198171 
L 963.959 -104.336724 
L 963.959 -103.475276 
L 963.959001 -102.613829 
L 963.960617 -101.752381 
L 963.970699 -100.890933 
L 963.959414 -100.029486 
L 963.959 -99.168038 
L 963.959001 -98.306591 
L 963.960383 -97.445143 
L 963.975639 -96.583696 
L 963.970415 -95.722248 
L 963.969178 -94.860801 
L 963.959171 -93.999353 
L 963.959 -93.137906 
L 963.959 -92.276458 
L 963.959 -91.415011 
L 963.959 -90.553563 
L 963.959 -89.692116 
L 963.959 -88.830668 
L 963.959 -87.969221 
L 963.959 -87.107773 
L 963.959 -86.246326 
L 963.959 -85.384878 
L 963.959 -84.523431 
L 963.95943 -83.661983 
L 963.970747 -82.800536 
L 963.960571 -81.939088 
L 963.959019 -81.077641 
L 963.964208 -80.216193 
L 963.966408 -79.354746 
L 963.959052 -78.493298 
L 963.959 -77.631851 
L 963.959 -76.770403 
L 963.959 -75.908956 
L 963.959 -75.047508 
L 963.959 -74.186061 
L 963.959 -73.324613 
L 963.959 -72.463166 
L 963.959 -71.601718 
L 963.959 -70.740271 
L 963.959 -69.878823 
L 963.959 -69.017376 
L 963.959 -68.155928 
L 963.959 -67.294481 
L 963.959 -66.433033 
L 963.960054 -65.571586 
L 963.971168 -64.710138 
L 963.959687 -63.848691 
L 963.959 -62.987243 
L 963.959 -62.125795 
L 963.959 -61.264348 
L 963.959 -60.4029 
L 963.959 -59.541453 
L 963.959 -58.680005 
L 963.959 -57.818558 
L 963.959 -56.95711 
L 963.959 -56.095663 
L 963.959 -55.234215 
L 963.959 -54.372768 
L 963.960147 -53.51132 
L 963.979129 -52.649873 
L 963.97882 -51.788425 
L 963.975674 -50.926978 
L 963.999641 -50.06553 
L 964.061876 -49.204083 
L 964.077131 -48.342635 
L 964.227483 -47.481188 
L 965.035537 -46.61974 
L 968.29222 -45.758293 
L 991.747906 -44.896845 
L 1046.4238 -44.035398 
L 968.142652 -43.17395 
z
" style="stroke: #484848; stroke-width: 3"/>
    </defs>
    <g clip-path="url(#pb14ce87420)">
     <use xlink:href="#mec92d712e3" x="0" y="288" style="fill: #df7f20; stroke: #484848; stroke-width: 3"/>
    </g>
   </g>
   <g id="line2d_6">
    <path d="M 139.311 244.140707 
L 139.311 243.123691 
" clip-path="url(#pb14ce87420)" style="fill: none; stroke: #484848; stroke-width: 4.5; stroke-linecap: round"/>
   </g>
   <g id="line2d_7">
    <path d="M 139.311 244.033652 
L 139.311 243.658962 
" clip-path="url(#pb14ce87420)" style="fill: none; stroke: #484848; stroke-width: 13.5; stroke-linecap: round"/>
   </g>
   <g id="line2d_8">
    <path d="M 139.311 243.873071 
" clip-path="url(#pb14ce87420)" style="fill: none; stroke: #484848; stroke-width: 1.5; stroke-linecap: round"/>
    <defs>
     <path id="m5185a3a11a" d="M 5.625 0 
L -5.625 -0 
" style="stroke: #ffffff; stroke-width: 2.7"/>
    </defs>
    <g clip-path="url(#pb14ce87420)">
     <use xlink:href="#m5185a3a11a" x="139.311" y="243.873071" style="fill: #ffffff; stroke: #ffffff; stroke-width: 2.7"/>
    </g>
   </g>
   <g id="line2d_9">
    <path d="M 345.473 244.057313 
L 345.473 242.89788 
" clip-path="url(#pb14ce87420)" style="fill: none; stroke: #484848; stroke-width: 4.5; stroke-linecap: round"/>
   </g>
   <g id="line2d_10">
    <path d="M 345.473 244.057313 
L 345.473 243.574216 
" clip-path="url(#pb14ce87420)" style="fill: none; stroke: #484848; stroke-width: 13.5; stroke-linecap: round"/>
   </g>
   <g id="line2d_11">
    <path d="M 345.473 243.960693 
" clip-path="url(#pb14ce87420)" style="fill: none; stroke: #484848; stroke-width: 1.5; stroke-linecap: round"/>
    <g clip-path="url(#pb14ce87420)">
     <use xlink:href="#m5185a3a11a" x="345.473" y="243.960693" style="fill: #ffffff; stroke: #ffffff; stroke-width: 2.7"/>
    </g>
   </g>
   <g id="line2d_12">
    <path d="M 551.635 244.950851 
L 551.635 238.93234 
" clip-path="url(#pb14ce87420)" style="fill: none; stroke: #484848; stroke-width: 4.5; stroke-linecap: round"/>
   </g>
   <g id="line2d_13">
    <path d="M 551.635 244.950851 
L 551.635 242.543447 
" clip-path="url(#pb14ce87420)" style="fill: none; stroke: #484848; stroke-width: 13.5; stroke-linecap: round"/>
   </g>
   <g id="line2d_14">
    <path d="M 551.635 244.950851 
" clip-path="url(#pb14ce87420)" style="fill: none; stroke: #484848; stroke-width: 1.5; stroke-linecap: round"/>
    <g clip-path="url(#pb14ce87420)">
     <use xlink:href="#m5185a3a11a" x="551.635" y="244.950851" style="fill: #ffffff; stroke: #ffffff; stroke-width: 2.7"/>
    </g>
   </g>
   <g id="line2d_15">
    <path d="M 757.797 244.516606 
L 757.797 242.548741 
" clip-path="url(#pb14ce87420)" style="fill: none; stroke: #484848; stroke-width: 4.5; stroke-linecap: round"/>
   </g>
   <g id="line2d_16">
    <path d="M 757.797 244.009144 
L 757.797 243.424208 
" clip-path="url(#pb14ce87420)" style="fill: none; stroke: #484848; stroke-width: 13.5; stroke-linecap: round"/>
   </g>
   <g id="line2d_17">
    <path d="M 757.797 243.873563 
" clip-path="url(#pb14ce87420)" style="fill: none; stroke: #484848; stroke-width: 1.5; stroke-linecap: round"/>
    <g clip-path="url(#pb14ce87420)">
     <use xlink:href="#m5185a3a11a" x="757.797" y="243.873563" style="fill: #ffffff; stroke: #ffffff; stroke-width: 2.7"/>
    </g>
   </g>
   <g id="line2d_18">
    <path d="M 963.959 244.079129 
L 963.959 243.089103 
" clip-path="url(#pb14ce87420)" style="fill: none; stroke: #484848; stroke-width: 4.5; stroke-linecap: round"/>
   </g>
   <g id="line2d_19">
    <path d="M 963.959 243.955428 
L 963.959 243.608898 
" clip-path="url(#pb14ce87420)" style="fill: none; stroke: #484848; stroke-width: 13.5; stroke-linecap: round"/>
   </g>
   <g id="line2d_20">
    <path d="M 963.959 243.850469 
" clip-path="url(#pb14ce87420)" style="fill: none; stroke: #484848; stroke-width: 1.5; stroke-linecap: round"/>
    <g clip-path="url(#pb14ce87420)">
     <use xlink:href="#m5185a3a11a" x="963.959" y="243.850469" style="fill: #ffffff; stroke: #ffffff; stroke-width: 2.7"/>
    </g>
   </g>
   <g id="patch_3">
    <path d="M 36.23 255.46 
L 36.23 40.32 
" style="fill: none; stroke: #ffffff; stroke-width: 1.25; stroke-linejoin: miter; stroke-linecap: square"/>
   </g>
   <g id="patch_4">
    <path d="M 1067.04 255.46 
L 1067.04 40.32 
" style="fill: none; stroke: #ffffff; stroke-width: 1.25; stroke-linejoin: miter; stroke-linecap: square"/>
   </g>
   <g id="patch_5">
    <path d="M 36.23 255.46 
L 1067.04 255.46 
" style="fill: none; stroke: #ffffff; stroke-width: 1.25; stroke-linejoin: miter; stroke-linecap: square"/>
   </g>
   <g id="patch_6">
    <path d="M 36.23 40.32 
L 1067.04 40.32 
" style="fill: none; stroke: #ffffff; stroke-width: 1.25; stroke-linejoin: miter; stroke-linecap: square"/>
   </g>
  </g>
  <g id="text_11">
   <!-- Violin Plot of all Continuous Variables -->
   <g style="fill: #262626" transform="translate(408.178125 16.995937) scale(0.15 -0.15)">
    <defs>
     <path id="IPAexGothic-56" d="M 4078 4634 
L 2222 0 
L 1806 0 
L -6 4634 
L 622 4634 
L 1703 1766 
Q 1916 1194 2034 784 
L 2053 784 
Q 2188 1256 2381 1766 
L 3450 4634 
L 4078 4634 
z
" transform="scale(0.015625)"/>
     <path id="IPAexGothic-69" d="M 1178 3928 
L 550 3928 
L 550 4569 
L 1178 4569 
L 1178 3928 
z
M 1138 63 
L 588 63 
L 588 3250 
L 1138 3250 
L 1138 63 
z
" transform="scale(0.015625)"/>
     <path id="IPAexGothic-6f" d="M 1919 3341 
Q 2594 3341 3056 2888 
Q 3531 2413 3531 1638 
Q 3531 888 3066 422 
Q 2609 -31 1919 -31 
Q 1228 -31 781 416 
Q 313 881 313 1656 
Q 313 2413 788 2888 
Q 1241 3341 1919 3341 
z
M 1919 2919 
Q 1519 2919 1241 2631 
Q 888 2278 888 1650 
Q 888 1031 1234 684 
Q 1516 403 1919 403 
Q 2331 403 2609 691 
Q 2956 1038 2956 1672 
Q 2956 2269 2603 2631 
Q 2316 2919 1919 2919 
z
" transform="scale(0.015625)"/>
     <path id="IPAexGothic-6c" d="M 1131 63 
L 581 63 
L 581 4794 
L 1131 4794 
L 1131 63 
z
" transform="scale(0.015625)"/>
     <path id="IPAexGothic-6e" d="M 3328 63 
L 2778 63 
L 2778 2041 
Q 2778 2853 2106 2853 
Q 1428 2853 1113 2041 
L 1113 63 
L 563 63 
L 563 3250 
L 1075 3250 
L 1075 2675 
Q 1525 3316 2222 3316 
Q 3328 3316 3328 2072 
L 3328 63 
z
" transform="scale(0.015625)"/>
     <path id="IPAexGothic-20" transform="scale(0.015625)"/>
     <path id="IPAexGothic-50" d="M 609 4634 
L 1941 4634 
Q 3688 4634 3688 3322 
Q 3688 1934 1906 1934 
L 1172 1934 
L 1172 63 
L 609 63 
L 609 4634 
z
M 1172 2381 
L 1800 2381 
Q 3100 2381 3100 3316 
Q 3100 4181 1894 4181 
L 1172 4181 
L 1172 2381 
z
" transform="scale(0.015625)"/>
     <path id="IPAexGothic-74" d="M 2125 241 
Q 1769 -6 1397 -6 
Q 653 -6 653 831 
L 653 2859 
L 219 2859 
L 219 3250 
L 653 3250 
L 653 3966 
L 1178 4228 
L 1178 3250 
L 2063 3250 
L 2063 2859 
L 1178 2859 
L 1178 906 
Q 1178 416 1513 416 
Q 1738 416 1941 588 
L 2125 241 
z
" transform="scale(0.015625)"/>
     <path id="IPAexGothic-66" d="M 2456 4622 
L 2228 4244 
Q 1991 4422 1741 4422 
Q 1184 4422 1184 3672 
L 1184 3250 
L 2053 3250 
L 2053 2859 
L 1184 2859 
L 1184 63 
L 641 63 
L 641 2859 
L 122 2859 
L 122 3250 
L 641 3250 
L 641 3659 
Q 641 4188 891 4484 
Q 1200 4844 1709 4844 
Q 2116 4844 2456 4622 
z
" transform="scale(0.015625)"/>
     <path id="IPAexGothic-61" d="M 3156 63 
L 2672 63 
Q 2559 303 2531 556 
L 2509 556 
Q 2147 -25 1428 -25 
Q 934 -25 622 288 
Q 347 563 347 959 
Q 347 1947 2050 1997 
L 2478 2009 
L 2478 2175 
Q 2478 2509 2288 2700 
Q 2088 2900 1775 2900 
Q 1238 2900 969 2378 
L 494 2597 
Q 938 3328 1788 3328 
Q 2375 3328 2691 3000 
Q 2984 2706 2984 2169 
L 2984 997 
Q 2984 400 3156 63 
z
M 2491 1625 
L 2141 1619 
Q 903 1591 903 953 
Q 903 728 1050 581 
Q 1231 403 1525 403 
Q 1934 403 2234 703 
Q 2491 969 2491 1344 
L 2491 1625 
z
" transform="scale(0.015625)"/>
     <path id="IPAexGothic-43" d="M 4353 1088 
Q 4181 694 3859 428 
Q 3313 -31 2559 -31 
Q 1588 -31 959 653 
Q 378 1294 378 2331 
Q 378 3406 1013 4078 
Q 1619 4725 2534 4725 
Q 3813 4725 4322 3628 
L 3809 3391 
Q 3425 4238 2541 4238 
Q 1891 4238 1453 3744 
Q 994 3216 994 2322 
Q 994 1550 1384 1056 
Q 1841 472 2563 472 
Q 3456 472 3878 1319 
L 4353 1088 
z
" transform="scale(0.015625)"/>
     <path id="IPAexGothic-75" d="M 3284 63 
L 2772 63 
L 2772 644 
Q 2300 0 1625 0 
Q 1072 0 763 375 
Q 519 678 519 1241 
L 519 3250 
L 1069 3250 
L 1069 1259 
Q 1069 466 1734 466 
Q 2406 466 2734 1291 
L 2734 3250 
L 3284 3250 
L 3284 63 
z
" transform="scale(0.015625)"/>
     <path id="IPAexGothic-73" d="M 2234 2547 
Q 1938 2931 1484 2931 
Q 891 2931 891 2475 
Q 891 2153 1531 1944 
L 1741 1875 
Q 2650 1578 2650 894 
Q 2650 434 2272 172 
Q 1972 -31 1497 -31 
Q 766 -31 256 503 
L 603 819 
Q 997 397 1516 397 
Q 2131 397 2131 875 
Q 2131 1238 1453 1478 
L 1234 1553 
Q 378 1853 378 2431 
Q 378 2797 628 3047 
Q 928 3347 1453 3347 
Q 2156 3347 2606 2859 
L 2234 2547 
z
" transform="scale(0.015625)"/>
     <path id="IPAexGothic-72" d="M 2309 3316 
L 2213 2769 
Q 2106 2791 2022 2791 
Q 1653 2791 1413 2444 
Q 1113 2006 1113 1675 
L 1113 63 
L 563 63 
L 563 3250 
L 1081 3250 
L 1056 2303 
L 1069 2303 
Q 1422 3341 2097 3341 
Q 2206 3341 2309 3316 
z
" transform="scale(0.015625)"/>
     <path id="IPAexGothic-62" d="M 1125 2731 
Q 1550 3341 2219 3341 
Q 2788 3341 3191 2938 
Q 3659 2469 3659 1644 
Q 3659 838 3191 372 
Q 2788 -31 2206 -31 
Q 1559 -31 1088 516 
L 1009 44 
L 581 44 
L 581 4794 
L 1125 4794 
L 1125 2731 
z
M 1125 1997 
L 1125 1253 
Q 1125 888 1528 600 
Q 1803 403 2119 403 
Q 2488 403 2744 659 
Q 3084 1009 3084 1631 
Q 3084 2194 2803 2553 
Q 2525 2900 2125 2900 
Q 1759 2900 1438 2578 
Q 1125 2266 1125 1997 
z
" transform="scale(0.015625)"/>
     <path id="IPAexGothic-65" d="M 863 1594 
Q 891 1041 1209 722 
Q 1534 397 1997 397 
Q 2606 397 2963 966 
L 3322 728 
Q 2869 -31 1931 -31 
Q 1222 -31 766 422 
Q 306 884 306 1641 
Q 306 2444 788 2925 
Q 1216 3353 1856 3353 
Q 2459 3353 2866 2956 
Q 3322 2494 3322 1722 
L 3322 1594 
L 863 1594 
z
M 2756 1997 
Q 2709 2431 2450 2681 
Q 2194 2938 1844 2938 
Q 1438 2938 1150 2591 
Q 953 2356 894 1997 
L 2756 1997 
z
" transform="scale(0.015625)"/>
    </defs>
    <use xlink:href="#IPAexGothic-56"/>
    <use xlink:href="#IPAexGothic-69" x="63.720703"/>
    <use xlink:href="#IPAexGothic-6f" x="90.722656"/>
    <use xlink:href="#IPAexGothic-6c" x="151.123047"/>
    <use xlink:href="#IPAexGothic-69" x="178.125"/>
    <use xlink:href="#IPAexGothic-6e" x="205.126953"/>
    <use xlink:href="#IPAexGothic-20" x="265.527344"/>
    <use xlink:href="#IPAexGothic-50" x="292.529297"/>
    <use xlink:href="#IPAexGothic-6c" x="354.638672"/>
    <use xlink:href="#IPAexGothic-6f" x="381.640625"/>
    <use xlink:href="#IPAexGothic-74" x="442.041016"/>
    <use xlink:href="#IPAexGothic-20" x="476.660156"/>
    <use xlink:href="#IPAexGothic-6f" x="503.662109"/>
    <use xlink:href="#IPAexGothic-66" x="564.0625"/>
    <use xlink:href="#IPAexGothic-20" x="594.677734"/>
    <use xlink:href="#IPAexGothic-61" x="621.679688"/>
    <use xlink:href="#IPAexGothic-6c" x="676.660156"/>
    <use xlink:href="#IPAexGothic-6c" x="703.662109"/>
    <use xlink:href="#IPAexGothic-20" x="730.664062"/>
    <use xlink:href="#IPAexGothic-43" x="757.666016"/>
    <use xlink:href="#IPAexGothic-6f" x="830.175781"/>
    <use xlink:href="#IPAexGothic-6e" x="890.576172"/>
    <use xlink:href="#IPAexGothic-74" x="950.976562"/>
    <use xlink:href="#IPAexGothic-69" x="985.595703"/>
    <use xlink:href="#IPAexGothic-6e" x="1012.597656"/>
    <use xlink:href="#IPAexGothic-75" x="1072.998047"/>
    <use xlink:href="#IPAexGothic-6f" x="1133.398438"/>
    <use xlink:href="#IPAexGothic-75" x="1193.798828"/>
    <use xlink:href="#IPAexGothic-73" x="1254.199219"/>
    <use xlink:href="#IPAexGothic-20" x="1300.390625"/>
    <use xlink:href="#IPAexGothic-56" x="1327.392578"/>
    <use xlink:href="#IPAexGothic-61" x="1391.113281"/>
    <use xlink:href="#IPAexGothic-72" x="1446.09375"/>
    <use xlink:href="#IPAexGothic-69" x="1483.105469"/>
    <use xlink:href="#IPAexGothic-61" x="1510.107422"/>
    <use xlink:href="#IPAexGothic-62" x="1565.087891"/>
    <use xlink:href="#IPAexGothic-6c" x="1627.490234"/>
    <use xlink:href="#IPAexGothic-65" x="1654.492188"/>
    <use xlink:href="#IPAexGothic-73" x="1711.376953"/>
   </g>
  </g>
 </g>
 <defs>
  <clipPath id="pb14ce87420">
   <rect x="36.23" y="40.32" width="1030.81" height="215.14"/>
  </clipPath>
 </defs>
</svg>
